<?xml version="1.0" encoding="UTF-8" standalone="no"?>
<!-- Created with Inkscape (http://www.inkscape.org/) -->

<svg
   width="350mm"
   height="297mm"
   viewBox="0 0 350 297"
   version="1.1"
   id="svg1"
   xml:space="preserve"
   inkscape:version="1.3.2 (091e20e, 2023-11-25, custom)"
   sodipodi:docname="glowborder.svg"
   xmlns:inkscape="http://www.inkscape.org/namespaces/inkscape"
   xmlns:sodipodi="http://sodipodi.sourceforge.net/DTD/sodipodi-0.dtd"
   xmlns="http://www.w3.org/2000/svg"
   xmlns:svg="http://www.w3.org/2000/svg"><sodipodi:namedview
     id="namedview1"
     pagecolor="#ffffff"
     bordercolor="#000000"
     borderopacity="0.25"
     inkscape:showpageshadow="2"
     inkscape:pageopacity="0.0"
     inkscape:pagecheckerboard="0"
     inkscape:deskcolor="#d1d1d1"
     inkscape:document-units="mm"
     inkscape:zoom="0.46551692"
     inkscape:cx="726.07457"
     inkscape:cy="342.62986"
     inkscape:window-width="1920"
     inkscape:window-height="974"
     inkscape:window-x="-11"
     inkscape:window-y="-11"
     inkscape:window-maximized="1"
     inkscape:current-layer="g301" /><defs
     id="defs1" /><g
     inkscape:label="Layer 1"
     inkscape:groupmode="layer"
     id="layer1"><g
       id="g301"
       transform="matrix(0.26458333,0,0,0.26458333,-68.375872,2.2272952)"><path
         fill="#c683fb"
         opacity="1"
         stroke="none"
         d="m 612.48194,397.45258 c 299.96905,6e-5 599.43806,0.0269 898.90706,-0.0803 14.7164,-0.005 25.6542,5.40814 31.357,19.1756 1.785,4.30872 2.3578,9.38959 2.372,14.12039 0.1594,52.82739 -0.3546,105.66144 0.3426,158.48016 0.2509,19.00556 -12.3011,35.13117 -34.8242,35.10645 -353.1297,-0.388 -706.25999,-0.27197 -1059.39012,-0.27203 -38.66266,0 -77.33523,-0.5152 -115.98352,0.22992 -17.69839,0.34124 -32.42691,-14.1103 -32.19873,-32.31934 0.67654,-53.98596 0.68402,-107.99146 -0.007,-161.97705 -0.22989,-17.95835 13.70944,-32.75516 32.95529,-32.6622 91.98804,0.44427 183.97943,0.19867 276.46967,0.19839 m 109.49946,6.69346 c -25.99756,-3.3e-4 -51.99512,-0.003 -77.99268,-7e-4 -101.99127,0.007 -203.98263,-0.0233 -305.97369,0.13992 -5.02902,0.008 -10.46844,0.78537 -14.99924,2.81009 -10.25973,4.58481 -13.1763,13.80997 -13.15722,24.35736 0.0395,21.83139 0.006,43.66291 0.006,65.49439 -4.6e-4,30.66406 -0.008,61.32812 0.01,91.99219 0.005,8.17547 1.14093,15.85693 7.66416,21.90478 6.06158,5.61969 13.26419,6.20026 20.92828,6.1994 343.30405,-0.0366 686.60814,-0.0233 1029.91214,-0.0204 48.3292,3.6e-4 96.6584,0.0279 144.9875,-0.0648 14.5824,-0.0279 24.6931,-9.33881 24.7312,-23.21234 0.1516,-55.32813 0.1409,-110.65711 -0.01,-165.98526 -0.027,-10.08994 -5.1347,-17.68744 -14.5,-21.41321 -4.3286,-1.72205 -9.4255,-2.09342 -14.1744,-2.09525 -262.1443,-0.10116 -524.28865,-0.098 -787.43296,-0.10617 z"
         id="path2" /><path
         fill="#818596"
         opacity="1"
         stroke="none"
         d="m 722.48145,404.14637 c 262.6443,0.008 524.78865,0.005 786.93295,0.10583 4.7489,0.002 9.8458,0.3732 14.1744,2.09525 9.3653,3.72577 14.4727,11.32327 14.5,21.41321 0.1497,55.32815 0.1604,110.65713 0.01,165.98526 -0.038,13.87353 -10.1488,23.18439 -24.7312,23.21234 -48.3291,0.0927 -96.6583,0.0651 -144.9875,0.0648 -343.304,-0.003 -686.60808,-0.0161 -1029.91213,0.0204 -7.66409,8.6e-4 -14.8667,-0.57971 -20.92828,-6.1994 -6.52323,-6.04785 -7.65937,-13.72931 -7.66416,-21.90478 -0.018,-30.66407 -0.0101,-61.32813 -0.01,-91.99219 3e-4,-21.83148 0.0334,-43.663 -0.006,-65.49439 -0.0191,-10.54739 2.89749,-19.77255 13.15722,-24.35736 4.5308,-2.02472 9.97022,-2.80203 14.99924,-2.81009 101.99106,-0.1632 203.98242,-0.13272 305.97369,-0.13992 25.99756,-0.002 51.99512,3.7e-4 78.49268,10e-4 M 513.94654,612.98304 c 6.6427,0.3056 13.2857,0.88397 19.9281,0.87762 273.96277,-0.26007 547.92546,-0.58032 821.88816,-0.87188 50.9973,-0.0543 101.9947,-0.003 152.992,-0.0632 3.4746,-0.004 6.9772,-0.34716 10.4176,-0.86157 9.7059,-1.45141 13.2967,-5.65277 13.2995,-15.34418 0.013,-44.49774 0.01,-88.99542 0.011,-133.49316 3e-4,-13.31332 0.064,-26.62714 -0.035,-39.93976 -0.059,-7.91348 -3.7548,-12.84595 -10.7697,-14.147 -4.0675,-0.75446 -8.2589,-1.17566 -12.3949,-1.17835 -118.6314,-0.0768 -237.2628,-0.0428 -355.8942,-0.13839 -18.3995,-0.0148 -36.7982,-0.81171 -55.1978,-0.83225 -85.3288,-0.0952 -170.6578,-0.0492 -255.98678,-0.0438 -53.76135,0.003 -107.52283,-0.0229 -161.28406,0.0774 -10.93927,0.0204 -21.87738,0.79474 -32.81634,0.80316 -102.49475,0.079 -204.9895,0.0668 -307.48425,0.0822 -1.8332,2.7e-4 -3.67865,-0.11887 -5.49759,0.0465 -14.43164,1.31225 -19.89673,4.58264 -19.78705,20.5267 0.38406,55.82776 0.14621,111.65991 0.14984,167.49036 6.7e-4,10.52337 3.29913,14.50714 13.56009,16.12634 3.1076,0.4903 6.27756,0.82178 9.41931,0.82477 58.16367,0.056 116.32733,0.0512 175.48157,0.0584 z"
         id="path3" /><path
         fill="#5e6675"
         opacity="1"
         stroke="none"
         d="m 513.4513,612.98341 c -58.659,-0.008 -116.82266,-0.003 -174.98633,-0.0588 -3.14175,-0.003 -6.31171,-0.33447 -9.41931,-0.82477 -10.26096,-1.6192 -13.55942,-5.60297 -13.56009,-16.12634 -0.004,-55.83045 0.23422,-111.6626 -0.14984,-167.49036 -0.10968,-15.94406 5.35541,-19.21445 19.78705,-20.5267 1.81894,-0.16541 3.66439,-0.0463 5.49759,-0.0465 102.49475,-0.0154 204.9895,-0.003 307.48425,-0.0822 10.93896,-0.008 21.87707,-0.78271 32.81634,-0.80316 53.76123,-0.1004 107.52271,-0.074 161.28406,-0.0774 85.32898,-0.005 170.65798,-0.0514 255.98678,0.0438 18.3996,0.0205 36.7983,0.81745 55.1978,0.83225 118.6314,0.0956 237.2628,0.0616 355.8942,0.13839 4.136,0.003 8.3274,0.42389 12.3949,1.17835 7.0149,1.30105 10.7107,6.23352 10.7697,14.147 0.099,13.31262 0.035,26.62644 0.035,39.93976 0,44.49774 0,88.99542 -0.011,133.49316 0,9.69141 -3.5936,13.89277 -13.2995,15.34418 -3.4404,0.51441 -6.943,0.85748 -10.4176,0.86157 -50.9973,0.0602 -101.9947,0.009 -152.992,0.0632 -273.9627,0.29156 -547.92539,0.61181 -821.88816,0.87188 -6.6424,0.006 -13.2854,-0.57202 -20.42334,-0.87725 M 342.06952,412.94526 c -0.99847,0.002 -1.99771,-0.0216 -2.99527,0.009 -9.23202,0.28659 -13.87436,2.33502 -13.80093,13.48669 0.37518,56.99521 0.17041,113.99423 0.17853,170.99191 0.001,7.66535 0.95739,8.79206 8.56402,10.11084 1.46784,0.25452 2.97858,0.35486 4.47049,0.36341 59.47559,0.34039 118.95148,0.97137 178.42691,0.93335 283.9665,-0.18164 567.93273,-0.54889 851.89903,-0.84143 46.1648,-0.0476 92.3296,-0.0474 138.4944,-0.0897 2.1593,-0.002 4.3508,-0.005 6.4719,-0.34936 7.8106,-1.26813 8.7298,-2.42371 8.7344,-10.46863 0.011,-19.11871 -0.078,-38.23791 0.043,-57.35589 0.08,-12.61646 0.6432,-25.23096 0.6434,-37.84638 10e-5,-12.56683 -0.5344,-25.13272 -0.6477,-37.70068 -0.1243,-13.78693 -0.1178,-27.57645 0,-41.36335 0.046,-5.19311 -2.3008,-8.17453 -7.2621,-9.1427 -2.1089,-0.41159 -4.2803,-0.69335 -6.4248,-0.70388 -73.8085,-0.36243 -147.6172,-0.99964 -221.4257,-0.95667 -254.6345,0.14813 -509.26921,0.54303 -763.90385,0.82645 -60.16419,0.067 -120.32847,0.0655 -181.46943,0.0967 z"
         id="path4" /><path
         fill="#3e485a"
         opacity="1"
         stroke="none"
         d="m 342.5579,412.94465 c 60.65258,-0.0306 120.81686,-0.0291 180.98105,-0.0961 254.63464,-0.28342 509.26935,-0.67832 763.90385,-0.82645 73.8085,-0.043 147.6172,0.59424 221.4257,0.95667 2.1445,0.0105 4.3159,0.29229 6.4248,0.70388 4.9613,0.96817 7.3079,3.94959 7.2621,9.1427 -0.1215,13.7869 -0.128,27.57642 0,41.36335 0.1133,12.56796 0.6478,25.13385 0.6477,37.70068 -2e-4,12.61542 -0.5636,25.22992 -0.6434,37.84638 -0.121,19.11798 -0.032,38.23718 -0.043,57.35589 0,8.04492 -0.9238,9.2005 -8.7344,10.46863 -2.1211,0.3443 -4.3126,0.34741 -6.4719,0.34936 -46.1648,0.0424 -92.3296,0.0422 -138.4944,0.0897 -283.9663,0.29254 -567.93253,0.65979 -851.89903,0.84143 -59.47543,0.038 -118.95132,-0.59296 -178.42691,-0.93335 -1.49191,-0.009 -3.00265,-0.10889 -4.47049,-0.36341 -7.60663,-1.31878 -8.56292,-2.44549 -8.56402,-10.11084 -0.008,-56.99768 0.19665,-113.9967 -0.17853,-170.99191 -0.0734,-11.15167 4.56891,-13.2001 13.80093,-13.48669 0.99756,-0.031 1.9968,-0.008 3.48365,-0.01 m 735.2716,1.04913 c -0.463,0.008 -0.926,0.0151 -2.321,0.002 -36.9097,-0.0158 -73.8195,-0.0398 -110.72935,-0.0452 -51.26755,-0.007 -102.53519,-0.002 -153.80277,-3e-5 -19.82629,7.1e-4 -39.65258,0.006 -60.35858,-0.0174 -2.0509,0.009 -4.1018,0.0185 -7.07336,0.032 -5.34998,0.29669 -10.69989,0.59339 -16.76673,0.47894 -1.30597,-0.17138 -2.61181,-0.4916 -3.9179,-0.49243 -35.53626,-0.0224 -71.07245,-0.0253 -106.60865,0.0358 -1.58966,0.003 -3.17822,0.63626 -5.70477,0.96661 -17.34747,0.028 -34.69488,0.056 -52.69488,0.054 -0.79737,0.28751 -1.59479,0.57504 -3.20166,0.69693 -6.05768,0.0643 -12.11542,0.12854 -19.10883,0.17047 -6.96783,-0.29617 -13.9353,-0.81372 -20.9035,-0.82349 -6.38965,-0.009 -12.78003,0.52994 -20.06391,0.82282 -17.02582,0.002 -34.05166,0.004 -51.79275,-0.40747 -2.14072,-0.17871 -4.28293,-0.52917 -6.42194,-0.51041 -33.27826,0.29236 -66.55624,0.62409 -99.83401,0.96924 -6.05371,0.0628 -7.03287,1.09937 -7.03452,7.53714 -0.0147,57.94785 -0.0142,115.89566 -7.3e-4,173.84354 0.002,6.68811 1.81927,8.56579 8.64386,8.56958 50.45428,0.0283 100.9086,0.004 152.23282,0.009 4.70392,-0.31616 9.4079,-0.63233 14.75488,-0.54553 1.79028,0.16302 3.58057,0.32611 6.05505,0.95898 1.80146,0.19952 3.60279,0.57318 5.4043,0.57373 132.69342,0.0414 265.38684,0.057 398.08026,0.0318 1.94709,-3.6e-4 3.89405,-0.53656 6.49378,-0.85419 0.43554,0.01 0.87109,0.02 1.87872,0.38373 1.48938,-0.1181 2.97882,-0.23614 5.25964,-0.39239 1.05609,0.013 2.11219,0.0261 3.89777,0.42541 6.10364,-0.12915 12.20721,-0.2583 19.05035,-0.42273 0.73999,0.0132 1.47998,0.0263 2.9505,0.42493 1.31275,0.15649 2.62543,0.44971 3.93818,0.44995 87.38993,0.0149 174.78013,0.0173 262.17003,-0.0779 1.7602,-0.002 3.5191,-1.16504 6.2037,-1.79334 17.3276,-0.0232 34.6553,-0.0464 52.9197,-0.0531 25.0149,0.2865 50.0299,0.57306 75.9812,0.90418 20.6858,-0.0126 41.3717,-0.0252 62.988,-0.0102 6.9718,-0.30933 13.9423,-0.84772 20.9155,-0.88556 22.1575,-0.1203 44.3158,-0.0532 66.4739,-0.0603 9.9357,-0.003 10.919,-0.92407 11.6716,-10.93621 0.05,-0.66352 0.042,-1.3321 0.042,-1.99836 0,-56.3114 0.011,-112.62277 -0.01,-168.93414 0,-5.68445 -1.3297,-7.07693 -7.0938,-7.12134 -12.4943,-0.0963 -24.9903,-0.0914 -37.4847,-0.002 -2.4675,0.0177 -4.9311,0.60104 -8.2208,0.75873 -0.9739,-0.21991 -1.9469,-0.62763 -2.9217,-0.63169 -15.3181,-0.0637 -30.6363,-0.0878 -45.9545,-0.0628 -0.7748,0.001 -1.5487,0.52963 -3.1556,0.75101 -7.7231,-0.2884 -15.4464,-0.57676 -23.8338,-1.27655 -2.8004,0.46093 -5.6009,0.9219 -9.2581,1.37655 -1.9981,-0.008 -3.9963,-0.0152 -6.298,-0.61993 -1.5981,-0.11933 -3.1962,-0.23865 -5.6368,-0.38159 -4.0734,-0.2417 -8.1468,-0.4834 -13.0472,-0.71683 -3.4665,0.25348 -6.9319,0.70691 -10.3997,0.72565 -14.5649,0.0787 -29.1305,0.0274 -44.2855,-0.38099 -1.8068,0.13291 -3.6137,0.26581 -6.3169,0.38935 -2.6344,0.21112 -5.2692,0.60421 -7.903,0.59707 -6.2711,-0.017 -12.5428,-0.367 -18.8122,-0.32067 -10.4921,0.0775 -20.9828,0.35913 -32.2813,0.53573 -5.3126,-0.005 -10.6251,-0.0102 -16.141,-0.74014 -2.0333,-0.67023 -4.0647,-1.9187 -6.1001,-1.92505 -38.6923,-0.12082 -77.3851,-0.10892 -116.0778,-0.0596 -1.9312,0.002 -3.8615,0.59341 -6.6657,0.92355 -2.0413,-0.009 -4.0825,-0.0175 -6.6506,-0.3967 -0.8366,-0.15707 -1.6731,-0.31411 -3.1474,-0.50061 -0.4259,0.008 -0.8518,0.0169 -1.9712,-0.002 z"
         id="path5" /><path
         fill="#1f293c"
         opacity="1"
         stroke="none"
         d="m 1278.4864,604.97858 c -17.3276,0.0232 -34.6553,0.0464 -52.9228,0.0358 -36.9891,-0.0563 -73.038,-0.0787 -108.9213,-0.43591 1.3544,-0.78021 2.5088,-1.4477 3.7367,-1.63568 8.0177,-1.22742 16.571,-0.98523 23.9685,-3.80072 14.1799,-5.39704 28.0176,-11.92688 41.422,-19.06653 15.4682,-8.23883 30.2087,-17.6438 42.6844,-30.39423 13.1346,-13.4237 23.4318,-28.32776 28.3625,-46.57861 0.8535,-3.15961 0.9962,-6.55835 1.1137,-9.85919 0.2022,-5.68024 0.466,-11.39322 0.085,-17.05084 -0.5381,-7.99912 -3.9568,-15.9451 -0.3526,-23.97013 3.3411,-7.43924 1.5277,-14.92013 -0.6468,-21.94876 -1.6813,-5.43439 -4.2681,-11.20251 -12.1696,-10.92798 -3.1177,0.10834 -6.302,-1.69797 -9.4559,-2.63244 10.4912,-0.19571 20.9819,-0.47733 31.474,-0.55484 6.2694,-0.0463 12.5411,0.30365 18.8122,0.32067 2.6338,0.007 5.2686,-0.38595 8.6411,-0.37753 2.5483,0.0783 4.3583,-0.063 6.1684,-0.20422 14.5654,0.004 29.131,0.055 43.6959,-0.0237 3.4678,-0.0187 6.9332,-0.47217 10.7387,-0.41471 -1.3498,3.18213 -3.4311,11.94461 -3.5025,16.01975 -0.023,1.31497 -0.5129,2.62289 -0.5266,3.93674 -0.049,4.73712 -1.4065,10.08969 0.3234,14.08773 3.8344,8.86136 6.9035,17.65668 8.8365,27.21747 2.2084,10.92218 1.4791,21.46985 -0.1348,32.08514 -3.0825,20.27588 -13.4,36.9787 -26.2321,52.58985 -11.3318,13.78583 -25.3065,24.24774 -39.7939,34.20117 -4.9477,3.39941 -10.2591,6.26959 -15.4045,9.38165 z"
         id="path6" /><path
         fill="#1f293c"
         opacity="1"
         stroke="none"
         d="m 558.50403,415.03846 c 17.34748,-0.028 34.69489,-0.056 52.86316,0.13238 5.92597,0.41794 11.03101,0.61948 16.06726,1.20166 -2.05877,1.10459 -4.03979,2.42453 -6.04022,2.45462 -11.87695,0.17859 -23.57642,1.15183 -34.77759,5.54203 -24.79785,9.71939 -49.15143,20.18673 -71.86407,34.44192 -15.58985,9.7847 -29.45227,21.07059 -39.77457,36.25077 -13.74524,20.21411 -9.68176,35.12512 4.694,50.15777 5.67304,5.93231 13.51129,9.75574 20.18115,14.78162 11.245,8.47326 24.88092,11.72009 37.46894,17.18841 12.19287,5.29663 24.82397,9.68592 37.49145,13.76239 14.97675,4.8197 29.6828,10.98743 45.85327,11.11652 1.28656,0.0102 2.55878,1.81531 3.36768,2.79962 -35.89124,0.0207 -71.31262,0.0109 -106.73377,0.0749 -2.27008,0.004 -4.53912,0.5777 -6.80865,0.88641 -1.79028,-0.16314 -3.58057,-0.32623 -5.82324,-1.03698 -2.51288,-1.32074 -4.51905,-2.32453 -6.64374,-2.82416 -6.88837,-1.61969 -14.02985,-2.44135 -20.68219,-4.71576 -8.31299,-2.84222 -16.21356,-6.87744 -24.33417,-10.29803 -19.24411,-8.10584 -37.75924,-17.23212 -51.68112,-33.60559 -8.73392,-10.27204 -12.30405,-21.91767 -10.36597,-35.16004 2.08298,-14.23212 10.80146,-25.3482 20.28699,-34.74597 10.99005,-10.88828 23.83438,-20.25147 36.9747,-28.52902 14.15604,-8.91745 29.45355,-16.08167 44.50293,-23.50412 12.78565,-6.30591 25.60767,-12.86643 40.52893,-12.65662 1.0603,0.0149 2.1471,-1.85919 3.22156,-2.85498 6.05768,-0.0642 12.11542,-0.12851 18.80548,0.0743 1.49548,-0.13327 2.35864,-0.53366 3.2218,-0.93408 z"
         id="path7" /><path
         fill="#1d2734"
         opacity="1"
         stroke="none"
         d="m 1234.987,416.70383 c 3.5575,0.94403 6.7418,2.75034 9.8595,2.642 7.9015,-0.27453 10.4883,5.49359 12.1696,10.92798 2.1745,7.02863 3.9879,14.50952 0.6468,21.94876 -3.6042,8.02503 -0.1855,15.97101 0.3526,23.97013 0.3806,5.65762 0.1168,11.3706 -0.085,17.05084 -0.1175,3.30084 -0.2602,6.69958 -1.1137,9.85919 -4.9307,18.25085 -15.2279,33.15491 -28.3625,46.57861 -12.4757,12.75043 -27.2162,22.1554 -42.6844,30.39423 -13.4044,7.13965 -27.2421,13.66949 -41.422,19.06653 -7.3975,2.81549 -15.9508,2.5733 -23.9685,3.80072 -1.2279,0.18798 -2.3823,0.85547 -4.2047,1.63971 -49.6555,0.32843 -98.6771,0.31823 -147.63495,-0.0745 1.5449,-1.11383 2.9847,-2.3764 4.5138,-2.49573 19.1611,-1.49603 38.46025,-1.42303 57.16985,-7.04022 17.6531,-5.30017 35.6203,-9.56451 53.2308,-14.99402 18.9651,-5.8471 36.9131,-14.25256 53.6322,-24.95349 7.9401,-5.08191 15.575,-10.83337 22.5816,-17.13397 9.6489,-8.67688 17.7596,-18.61707 23.437,-30.62939 4.9546,-10.48291 6.2018,-21.11371 5.552,-32.41346 -0.174,-3.02407 1.6292,-6.1799 2.6092,-9.24826 1.7014,-5.32821 4.0407,-10.52642 5.079,-15.97604 1.6843,-8.84042 -3.4548,-15.43613 -8.3533,-22.10654 -2.6616,-3.62442 -5.6924,-5.98224 -10.122,-6.42779 -5.9278,-0.59616 -11.8875,-0.93747 -17.7846,-1.74497 -2.597,-0.35562 -5.0738,-1.5899 -7.2129,-2.45971 3.6725,-0.0193 6.9547,0.0829 10.232,-0.005 9.426,-0.25384 18.8491,-0.7868 28.2749,-0.82736 9.0879,-0.0391 18.1777,0.39893 27.2667,0.62735 5.3126,0.005 10.6251,0.0102 16.3414,0.0248 z"
         id="path8" /><path
         fill="#2c354c"
         opacity="1"
         stroke="none"
         d="m 1465.5119,416.8747 c 2.4654,-0.32245 4.929,-0.90582 7.3965,-0.92349 12.4944,-0.0894 24.9904,-0.0943 37.4847,0.002 5.7641,0.0444 7.0918,1.43689 7.0938,7.12134 0.02,56.31137 0.011,112.62274 0.01,168.93414 0,0.66626 0.01,1.33484 -0.042,1.99836 -0.7526,10.01214 -1.7359,10.93298 -11.6716,10.93621 -22.1581,0.007 -44.3164,-0.06 -66.4739,0.0603 -6.9732,0.0378 -13.9437,0.57623 -21.4129,0.52954 -1.9987,-2.16333 -3.5,-3.97064 -4.7184,-5.43732 8.8682,-10.14569 18.1268,-19.5304 25.9816,-29.97131 17.2826,-22.97333 25.6441,-49.01984 24.3298,-77.95136 -0.6357,-13.99548 -4.7698,-27.04767 -10.6057,-39.63626 -3.1442,-6.78229 -6.622,-13.41717 -9.5448,-20.29059 -0.9192,-2.16171 -1.0495,-4.99887 -0.541,-7.30652 0.332,-1.5064 2.2855,-3.40582 3.8252,-3.75665 4.842,-1.10321 9.8508,-1.45178 14.7529,-2.32812 1.4507,-0.2594 2.7621,-1.2985 4.1373,-1.98026 z"
         id="path9" /><path
         fill="#242d44"
         opacity="1"
         stroke="none"
         d="m 1278.9548,604.98682 c 4.677,-3.1203 9.9884,-5.99048 14.9361,-9.38989 14.4874,-9.95343 28.4621,-20.41534 39.7939,-34.20117 12.8321,-15.61115 23.1496,-32.31397 26.2321,-52.58985 1.6139,-10.61529 2.3432,-21.16296 0.1348,-32.08514 -1.933,-9.56079 -5.0021,-18.35611 -8.8365,-27.21747 -1.7299,-3.99804 -0.3727,-9.35061 -0.3234,-14.08773 0.014,-1.31385 0.5035,-2.62177 0.5266,-3.93674 0.071,-4.07514 2.1527,-12.83762 3.916,-16.02387 4.1479,-0.0734 8.2213,0.16831 13.0222,0.63709 2.2227,0.40194 3.7178,0.57684 5.2128,0.75171 1.9982,0.008 3.9964,0.0152 6.8651,0.043 3.5978,-0.31495 6.3247,-0.65021 9.0518,-0.98548 7.7231,0.28842 15.4464,0.57678 23.47,1.23807 -1.9854,1.51395 -4.2643,2.66919 -6.5597,3.79096 -1.4325,0.7001 -4.0934,1.26803 -4.1453,2.03457 -0.4056,5.99103 -1.4699,12.30133 -0.075,17.9566 1.6733,6.78373 6.0844,12.84009 8.4145,19.52363 6.5576,18.8092 8.7033,38.01446 3.9625,57.68872 -4.2585,17.67352 -11.5443,33.78338 -23.4545,47.69018 -3.1222,3.64563 -5.4141,8.07123 -8.8125,11.39746 -7.7037,7.54004 -15.9562,14.51679 -23.7579,21.96106 -1.8193,1.7359 -2.7312,4.42285 -4.0606,6.67218 -25.0149,-0.28656 -50.0299,-0.57312 -75.5132,-0.86792 z"
         id="path10" /><path
         fill="#283149"
         opacity="1"
         stroke="none"
         d="m 1354.9362,605.87702 c 0.8612,-2.27161 1.7731,-4.95856 3.5924,-6.69446 7.8017,-7.44427 16.0542,-14.42102 23.7579,-21.96106 3.3984,-3.32623 5.6903,-7.75183 8.8125,-11.39746 11.9102,-13.9068 19.196,-30.01666 23.4545,-47.69018 4.7408,-19.67426 2.5951,-38.87952 -3.9625,-57.68872 -2.3301,-6.68354 -6.7412,-12.7399 -8.4145,-19.52363 -1.3951,-5.65527 -0.3308,-11.96557 0.075,-17.9566 0.052,-0.76654 2.7128,-1.33447 4.1453,-2.03457 2.2954,-1.12177 4.5743,-2.27701 6.9759,-3.76017 0.8902,-0.62506 1.6641,-1.15341 2.4389,-1.15469 15.3182,-0.025 30.6364,-8.9e-4 45.9545,0.0628 0.9748,0.004 1.9478,0.41178 3.3339,0.71405 -0.9631,0.76416 -2.2745,1.80326 -3.7252,2.06266 -4.9021,0.87634 -9.9109,1.22491 -14.7529,2.32812 -1.5397,0.35083 -3.4932,2.25025 -3.8252,3.75665 -0.5085,2.30765 -0.3782,5.14481 0.541,7.30652 2.9228,6.87342 6.4006,13.5083 9.5448,20.29059 5.8359,12.58859 9.97,25.64078 10.6057,39.63626 1.3143,28.93152 -7.0472,54.97803 -24.3298,77.95136 -7.8548,10.44091 -17.1134,19.82562 -25.9816,29.97131 1.2184,1.46668 2.7197,3.27399 4.2532,5.42352 -20.6537,0.3548 -41.3396,0.36744 -62.4936,0.35773 z"
         id="path11" /><path
         fill="#242d44"
         opacity="1"
         stroke="none"
         d="m 536.00892,415.88703 c -0.60663,1.00696 -1.69343,2.88107 -2.75373,2.86615 -14.92126,-0.20981 -27.74328,6.35071 -40.52893,12.65662 -15.04938,7.42245 -30.34689,14.58667 -44.50293,23.50412 -13.14032,8.27755 -25.98465,17.64074 -36.9747,28.52902 -9.48553,9.39777 -18.20401,20.51385 -20.28699,34.74597 -1.93808,13.24237 1.63205,24.888 10.36597,35.16004 13.92188,16.37347 32.43701,25.49975 51.68112,33.60559 8.12061,3.42059 16.02118,7.45581 24.33417,10.29803 6.65234,2.27441 13.79382,3.09607 20.68219,4.71576 2.12469,0.49963 4.13086,1.50342 6.32221,2.62262 -4.57306,0.66247 -9.27704,0.97864 -14.59943,0.9516 -2.47113,-0.76502 -4.32135,-1.54028 -6.17676,-1.55286 -15.02933,-0.10217 -30.05966,-0.0611 -45.26117,-0.40423 -0.70145,-0.71076 -1.23013,-1.40131 -1.7616,-1.40351 -8.34201,-0.0343 -15.68554,-3.11413 -23.31524,-6.2489 -14.88321,-6.11481 -29.04553,-13.34711 -41.36841,-23.6206 -6.90711,-5.75843 -14.72049,-10.86878 -18.29605,-19.99946 -3.08731,-7.88391 -7.29682,-15.44427 -6.92206,-24.19152 0.5213,-12.16614 5.28195,-23.18079 12.81015,-32.2475 8.20081,-9.87659 17.14417,-19.66532 27.47403,-27.12372 16.22586,-11.71545 33.82874,-21.53845 50.97665,-31.95181 4.23938,-2.57443 9.10505,-4.09766 13.45285,-6.51734 12.48252,-6.94683 25.36527,-12.38299 39.99509,-12.45376 1.37378,-0.007 2.74152,-1.26843 4.11206,-1.94745 6.39008,-0.29755 12.78046,-0.83643 19.17011,-0.82749 6.9682,0.01 13.93567,0.52732 21.3714,0.83463 z"
         id="path12" /><path
         fill="#252f46"
         opacity="1"
         stroke="none"
         d="m 495.02051,415.87757 c -0.92364,0.68134 -2.29138,1.94315 -3.66516,1.94977 -14.62982,0.0708 -27.51257,5.50693 -39.99509,12.45376 -4.3478,2.41968 -9.21347,3.94291 -13.45285,6.51734 -17.14791,10.41336 -34.75079,20.23636 -50.97665,31.95181 -10.32986,7.4584 -19.27322,17.24713 -27.47403,27.12372 -7.5282,9.06671 -12.28885,20.08136 -12.81015,32.2475 -0.37476,8.74725 3.83475,16.30761 6.92206,24.19152 3.57556,9.13068 11.38894,14.24103 18.29605,19.99946 12.32288,10.27349 26.4852,17.50579 41.36841,23.6206 7.6297,3.13477 14.97323,6.2146 23.31524,6.2489 0.53147,0.002 1.06015,0.69275 1.29297,1.40448 -21.95504,0.33979 -43.61438,0.18402 -65.2702,0.39398 -13.21942,0.12818 -23.94702,-6.06958 -34.39978,-12.89849 -1.88586,-1.23212 -3.23242,-4.36194 -3.52176,-6.7724 -1.02792,-8.56379 -1.92395,-17.18763 -2.07684,-25.80286 -0.30738,-17.3208 -0.0939,-34.65088 -0.0931,-51.97717 3.7e-4,-7.79157 -0.43662,-15.61872 0.18542,-23.3606 0.3411,-4.24579 1.27182,-9.59418 4.0405,-12.26196 6.28616,-6.05695 13.44101,-11.51587 21.01709,-15.87076 19.01645,-10.93115 38.38556,-21.26028 57.77493,-31.52542 7.64264,-4.04617 15.64539,-7.48578 24.72568,-6.66919 1.05365,0.0948 2.18018,-0.62051 3.27289,-0.96027 17.02585,-0.002 34.05169,-0.004 51.52441,-0.004 z"
         id="path13" /><path
         fill="#2c354c"
         opacity="1"
         stroke="none"
         d="m 443.13849,415.67451 c -0.7351,0.54654 -1.86163,1.26181 -2.91528,1.16705 -9.08029,-0.81659 -17.08304,2.62302 -24.72568,6.66919 -19.38937,10.26514 -38.75848,20.59427 -57.77493,31.52542 -7.57608,4.35489 -14.73093,9.81381 -21.01709,15.87076 -2.76868,2.66778 -3.6994,8.01617 -4.0405,12.26196 -0.62204,7.74188 -0.18505,15.56903 -0.18542,23.3606 -8e-4,17.32629 -0.21424,34.65637 0.0931,51.97717 0.15289,8.61523 1.04892,17.23907 2.07684,25.80286 0.28934,2.41046 1.6359,5.54028 3.52176,6.7724 10.45276,6.82891 21.18036,13.02667 34.39978,12.89849 21.65582,-0.20996 43.31516,-0.0542 65.44168,-0.0536 15.49866,0.002 30.52899,-0.0393 45.55832,0.0629 1.85541,0.0126 3.70563,0.78784 5.74176,1.54663 -50.27075,0.34467 -100.72507,0.36884 -151.17935,0.34052 -6.82459,-0.004 -8.6423,-1.88147 -8.64386,-8.56958 -0.0135,-57.94788 -0.0139,-115.89569 7.3e-4,-173.84354 0.002,-6.43777 0.98081,-7.47436 7.03452,-7.53714 33.27777,-0.34515 66.55575,-0.67688 99.83401,-0.96924 2.13901,-0.0188 4.28122,0.3317 6.77957,0.71717 z"
         id="path14" /><path
         fill="#242d44"
         opacity="1"
         stroke="none"
         d="m 751.4975,413.96061 c 19.8263,-0.003 39.65259,-0.009 59.47888,-0.01 51.26758,-0.002 102.53522,-0.007 153.80277,3e-5 36.90985,0.005 73.81965,0.0294 111.20745,0.40717 0.4974,1.07074 0.5165,1.77948 0.063,2.51031 -7.839,0.0403 -15.2052,0.0584 -22.9036,0.073 -0.7753,-0.002 -1.2184,3.4e-4 -2.1304,-0.005 -22.4906,-0.006 -44.5125,-0.005 -66.98845,-0.007 -3.4845,-0.002 -6.5149,-3e-4 -9.8787,-0.002 -0.7781,-10e-4 -1.2227,10e-4 -2.136,4.9e-4 -23.48944,-0.002 -46.51019,-6.1e-4 -69.86431,-0.003 -0.77777,-8.9e-4 -1.22223,0.001 -2.10419,7.6e-4 -2.47919,-7.6e-4 -4.52081,0.002 -6.89581,2.7e-4 -0.77777,-10e-4 -1.22223,0.001 -2.10419,4.3e-4 -2.479,-4e-4 -4.52057,0.002 -7.01208,1.8e-4 -3.15034,-10e-4 -5.85053,0.002 -9.00879,0.002 -3.81916,-7.3e-4 -7.18018,0.002 -10.92255,2.4e-4 -2.79401,-0.002 -5.20679,7.1e-4 -8.03607,-2.4e-4 -1.80524,-7.9e-4 -3.19379,0.002 -4.95752,-4.9e-4 -1.12549,-10e-4 -1.8758,0.002 -3.05444,0.001 -2.1424,-0.001 -3.85645,10e-4 -5.98719,-0.002 -1.80591,-0.002 -3.19513,0.002 -4.98425,0.002 -1.46637,-0.001 -2.5329,6.4e-4 -3.96234,0.0501 -5.78772,0.0169 -11.21253,-0.0136 -16.97052,-0.0465 -0.77765,-7.4e-4 -1.22205,10e-4 -2.02979,0.0502 -21.13421,-0.0118 -41.90503,-0.0712 -62.66455,-0.4931 0.022,-1.08521 0.0328,-1.80787 0.0436,-2.53049 z"
         id="path15" /><path
         fill="#2c354c"
         opacity="1"
         stroke="none"
         d="m 510.83417,606.06434 c 1.92743,-0.54358 4.19647,-1.11719 6.46655,-1.12128 35.42115,-0.064 70.84253,-0.0542 107.1999,-0.0607 60.62011,0 120.30401,-6.7e-4 180.45593,0.0106 38.81518,0.0283 77.16247,0.0447 115.51599,0.34314 0.0139,0.47003 0.0216,0.65802 0.0294,0.84595 -1.94702,0.28613 -3.89398,0.82233 -5.84107,0.82269 -132.69342,0.0251 -265.38684,0.01 -398.08026,-0.0318 -1.80151,-5.5e-4 -3.60284,-0.37421 -5.7464,-0.80859 z"
         id="path16" /><path
         fill="#2c354c"
         opacity="1"
         stroke="none"
         d="m 968.47575,604.89057 c 49.02145,0.0102 98.04305,0.0204 147.53265,0.0266 36.5172,0.0186 72.5661,0.041 109.0926,0.10083 -1.2821,0.65857 -3.041,1.82166 -4.8012,1.82361 -87.3899,0.0952 -174.7801,0.0928 -262.17003,0.0779 -1.31275,-2.4e-4 -2.62543,-0.29346 -4.29175,-0.92578 -0.34967,-0.66358 -0.34564,-0.85132 0.0937,-1.04663 2.47137,-0.0238 4.50744,-0.0401 6.94464,-0.0438 1.47119,0.004 2.5412,-0.004 4.01009,-0.005 1.4623,0.003 2.5258,-0.003 3.5893,-0.008 z"
         id="path17" /><path
         fill="#2c354c"
         opacity="1"
         stroke="none"
         d="m 1218.5439,416.3166 c -8.9873,0.134 -18.0771,-0.30405 -27.165,-0.26493 -9.4258,0.0406 -18.8489,0.57352 -28.2749,0.82736 -3.2773,0.0883 -6.5595,-0.0139 -10.6758,8.6e-4 -3.2062,0.0317 -5.5763,0.0336 -8.2798,0.0306 -0.7782,-0.002 -1.2229,0.001 -2.1348,-10e-4 -17.476,-0.0218 -34.4847,-0.0386 -51.5014,-0.38394 -0.019,-0.76761 -0.029,-1.20664 -0.04,-1.64569 1.9308,-0.31696 3.8611,-0.90793 5.7923,-0.91037 38.6927,-0.0493 77.3855,-0.0612 116.0778,0.0596 2.0354,0.006 4.0668,1.25482 6.2017,2.28751 z"
         id="path18" /><path
         fill="#2c354c"
         opacity="1"
         stroke="none"
         d="m 627.5033,415.99186 c -5.1051,-0.20154 -10.21014,-0.40308 -15.66736,-0.81632 1.237,-0.55142 2.82556,-1.18496 4.41522,-1.18768 35.5362,-0.0611 71.07239,-0.0582 106.60865,-0.0358 1.30609,8.3e-4 2.61193,0.32105 4.2669,1.03394 0.33942,0.98776 0.3299,1.43402 -0.11462,1.89059 -3.79669,-0.27829 -7.1582,-0.56689 -10.98877,-0.87262 -29.8194,-0.0155 -59.16968,-0.0138 -88.52002,-0.0121 z"
         id="path19" /><path
         fill="#242d44"
         opacity="1"
         stroke="none"
         d="m 727.44715,416.86628 c 0.009,-0.44626 0.019,-0.89252 0.038,-1.67471 5.35944,-0.63263 10.70935,-0.92933 16.52448,-0.8682 0.47998,1.08283 0.49481,1.80777 0.038,2.55322 -5.84784,0.0102 -11.22412,-6e-5 -16.60046,-0.0103 z"
         id="path20" /><path
         fill="#2c354c"
         opacity="1"
         stroke="none"
         d="m 950.50159,606.07978 c -6.10364,0.12921 -12.20721,0.25836 -18.66394,-0.0884 -0.34912,-0.66358 -0.34509,-0.8512 0.10693,-1.04584 3.1435,-0.012 5.83893,-0.017 8.98853,-0.0157 3.47882,0.0169 6.50354,0.0274 9.53564,0.31604 0.0159,0.46337 0.0244,0.64868 0.0328,0.83392 z"
         id="path21" /><path
         fill="#2c354c"
         opacity="1"
         stroke="none"
         d="m 744.51917,416.85612 c -0.0148,-0.72498 -0.0296,-1.44992 -0.0493,-2.53486 2.04609,-0.36923 4.09699,-0.37847 6.58771,-0.3742 0.42908,0.73617 0.41828,1.45883 -0.0356,2.55643 -2.46301,0.36752 -4.48291,0.36007 -6.50287,0.35263 z"
         id="path22" /><path
         fill="#2c354c"
         opacity="1"
         stroke="none"
         d="m 1389.1541,415.69562 c -2.3949,0.54096 -5.1218,0.87622 -8.2911,1.19434 2.3581,-0.47812 5.1586,-0.93909 8.2911,-1.19434 z"
         id="path23" /><path
         fill="#242d44"
         opacity="1"
         stroke="none"
         d="m 1090.0354,414.88642 c 0.4475,0.43246 0.4582,0.87149 0.034,1.65955 -2.4994,0.33349 -4.564,0.31793 -6.6227,-0.0276 0.013,-0.77051 0.021,-1.21106 0.028,-1.65164 2.0413,0.009 4.0825,0.0175 6.5605,0.0197 z"
         id="path24" /><path
         fill="#2c354c"
         opacity="1"
         stroke="none"
         d="m 1300.1915,415.69514 c -1.5153,0.34353 -3.3253,0.4848 -5.4253,0.41122 1.5168,-0.34775 3.3237,-0.48065 5.4253,-0.41122 z"
         id="path25" /><path
         fill="#2c354c"
         opacity="1"
         stroke="none"
         d="m 927.50153,606.08008 c -1.48938,0.11805 -2.97882,0.23609 -4.74274,-0.10516 -0.27063,-0.64673 -0.26672,-0.8341 0.15101,-1.02862 1.79455,-0.002 3.17517,0.003 4.56207,0.2893 0.014,0.46924 0.0218,0.65686 0.0297,0.84448 z"
         id="path26" /><path
         fill="#2c354c"
         opacity="1"
         stroke="none"
         d="m 1373.4177,416.54517 c -1.3433,0.12372 -2.8384,-0.0512 -4.6398,-0.44134 1.2918,-0.0959 2.8899,0.0234 4.6398,0.44134 z"
         id="path27" /><path
         fill="#2c354c"
         opacity="1"
         stroke="none"
         d="m 1083.2115,414.68152 c 0.2559,0.62583 0.2483,1.06638 -0.1293,1.84894 -1.0998,0.33326 -1.8297,0.32447 -2.567,-0.0382 -0.031,-1.05828 -0.054,-1.76269 -0.077,-2.4671 0.8366,0.15705 1.6731,0.31409 2.7731,0.65637 z"
         id="path28" /><path
         fill="#1f293c"
         opacity="1"
         stroke="none"
         d="m 927.89722,606.06098 c -0.4035,-0.16852 -0.41131,-0.35614 -0.17065,-1.02228 1.42236,-0.34771 2.59613,-0.21692 3.76996,-0.0862 -0.004,0.18762 -0.008,0.37524 -0.0236,0.84564 -1.06774,0.26978 -2.12384,0.25672 -3.57568,0.26282 z"
         id="path29" /><path
         fill="#252f46"
         opacity="1"
         stroke="none"
         d="m 558.17774,415.02347 c -0.53687,0.41541 -1.40003,0.8158 -2.49078,1.0319 0.56976,-0.47184 1.36718,-0.75937 2.49078,-1.0319 z"
         id="path30" /><path
         fill="#1f293c"
         opacity="1"
         stroke="none"
         d="m 950.87134,606.06214 c -0.37823,-0.1676 -0.38665,-0.35291 -0.25293,-1.01025 0.35724,-0.71851 0.59754,-0.93732 1.14405,-1.0636 0.76532,0.36535 1.24963,0.66583 1.73394,0.96625 -0.004,0.1878 -0.008,0.37554 -0.0237,0.84643 -0.75165,0.2699 -1.49164,0.25678 -2.60138,0.26117 z"
         id="path31" /><path
         fill="#2c354c"
         opacity="1"
         stroke="none"
         d="m 1076.5224,416.84632 c -0.019,-0.70874 -0.038,-1.41748 -0.07,-2.47809 0.4509,-0.35937 0.9139,-0.36691 1.7114,-0.01 0.315,1.07181 0.2953,1.77906 -0.044,2.49686 -0.7455,0.004 -1.1716,-0.002 -1.5979,-0.009 z"
         id="path32" /><path
         fill="#242d44"
         opacity="1"
         stroke="none"
         d="m 1078.4397,416.84461 c 0.02,-0.70721 0.039,-1.41446 0.071,-2.47259 0.4382,-0.35938 0.8641,-0.36783 1.6089,-0.36158 0.3419,0.71912 0.365,1.42353 0.048,2.49845 -0.8026,0.35891 -1.2654,0.34732 -1.7282,0.33572 z"
         id="path33" /><path
         fill="#1f293c"
         opacity="1"
         stroke="none"
         d="m 922.49598,604.95344 c -0.004,0.18738 -0.008,0.37475 -0.0232,0.84466 -0.44708,0.27246 -0.88263,0.26245 -1.64453,0.26819 -0.33411,-0.17218 -0.3418,-0.36017 -0.17615,-0.98389 0.73023,-0.33355 1.28705,-0.23126 1.84388,-0.12896 z"
         id="path34" /><path
         fill="#1d2734"
         opacity="1"
         stroke="none"
         d="m 627.43445,416.3725 c 29.41919,-0.38232 58.76947,-0.384 88.52161,0.008 -0.927,1.10751 -2.22089,2.35723 -3.59015,2.4461 -7.95923,0.51651 -15.94067,1.11716 -23.906,1.01514 -13.06116,-0.16727 -25.42176,3.05798 -37.4795,7.39364 -27.8949,10.03037 -55.36804,20.95795 -80.539,37.06397 -13.79138,8.82461 -25.88202,19.07199 -34.60235,33.06051 -3.73505,5.99158 -4.60743,12.50989 -3.10328,19.15278 2.76117,12.19445 11.59082,19.9107 21.28009,26.57824 12.17298,8.37659 25.98835,13.33319 39.91126,17.92609 12.14374,4.00604 24.27215,8.06598 36.48291,11.85882 12.22992,3.79865 24.46356,7.64521 36.85992,10.83143 13.65589,3.51001 27.40229,6.85034 41.28437,9.25311 18.31604,3.17035 36.75085,5.84741 55.23413,7.79022 12.03906,1.2655 24.25958,0.75153 36.38623,1.30853 1.47802,0.0679 2.87781,1.83954 4.3139,2.8216 -59.68396,6.7e-4 -119.36786,10e-4 -179.518,-0.0121 -1.745,-0.98504 -3.01722,-2.7901 -4.30378,-2.80035 -16.17047,-0.12909 -30.87652,-6.29682 -45.85327,-11.11652 -12.66748,-4.07647 -25.29858,-8.46576 -37.49145,-13.76239 -12.58802,-5.46832 -26.22394,-8.71515 -37.46894,-17.18841 -6.66986,-5.02588 -14.50811,-8.84931 -20.18115,-14.78162 -14.37576,-15.03265 -18.43924,-29.94366 -4.694,-50.15777 10.3223,-15.18018 24.18472,-26.46607 39.77457,-36.25077 22.71264,-14.25519 47.06622,-24.72253 71.86407,-34.44192 11.20117,-4.3902 22.90064,-5.36344 34.77759,-5.54203 2.00043,-0.0301 3.98145,-1.35003 6.04022,-2.45462 z"
         id="path35" /><path
         fill="#1c272f"
         opacity="1"
         stroke="none"
         d="m 804.95655,604.89295 c -1.90405,-0.99402 -3.30384,-2.76568 -4.78186,-2.83356 -12.12665,-0.557 -24.34717,-0.043 -36.38623,-1.30853 -18.48328,-1.94281 -36.91809,-4.61987 -55.23413,-7.79022 -13.88208,-2.40277 -27.62848,-5.7431 -41.28437,-9.25311 -12.39636,-3.18622 -24.63,-7.03278 -36.85992,-10.83143 -12.21076,-3.79284 -24.33917,-7.85278 -36.48291,-11.85882 -13.92291,-4.5929 -27.73828,-9.5495 -39.91126,-17.92609 -9.68927,-6.66754 -18.51892,-14.38379 -21.28009,-26.57824 -1.50415,-6.64289 -0.63177,-13.1612 3.10328,-19.15278 8.72033,-13.98852 20.81097,-24.2359 34.60235,-33.06051 25.17096,-16.10602 52.6441,-27.0336 80.539,-37.06397 12.05774,-4.33566 24.41834,-7.56091 37.4795,-7.39364 7.96533,0.10202 15.94677,-0.49863 23.906,-1.01514 1.36926,-0.0889 2.66315,-1.33859 4.05914,-2.42895 3.42884,-0.0883 6.79035,0.20034 10.58704,0.47863 5.8114,-6e-5 11.18768,0.0102 17.03552,0 2.49152,-0.013 4.51142,-0.006 6.96314,-0.0105 21.20263,0.0469 41.97345,0.10629 62.96191,0.45245 -1.72382,1.05044 -3.64032,2.40347 -5.61035,2.48657 -19.60339,0.82694 -39.21161,1.7164 -58.82709,2.01141 -10.55621,0.15876 -20.84405,0.78397 -30.96435,4.23499 -16.18293,5.51837 -32.73652,9.99365 -48.7677,15.90219 -19.33857,7.12753 -38.14386,15.61719 -55.18934,27.45139 -4.16546,2.89193 -7.97192,6.30148 -11.93902,9.4786 -6.85626,5.49106 -11.23932,12.8367 -14.45551,20.74595 -2.26019,5.55816 -0.68097,10.77972 2.09626,16.43066 3.45611,7.03198 7.75457,12.58795 14.37805,16.4541 4.31207,2.51703 8.56164,5.25482 13.13971,7.17847 9.15539,3.84704 18.4201,7.49194 27.82983,10.65442 5.78656,1.94476 11.97534,2.65557 17.89545,4.2478 13.13965,3.53393 26.17322,7.47119 39.34961,10.85614 7.86249,2.01978 15.92914,3.23328 23.8753,4.94269 6.59955,1.41967 13.10114,3.3695 19.74707,4.48114 9.11432,1.52447 18.31079,2.59405 27.49585,3.65185 15.77948,1.8172 31.55298,3.76367 47.37598,5.09918 10.83881,0.9148 21.75842,1.23493 32.63989,1.19953 17.97138,-0.0584 35.94342,-0.53131 53.91052,-1.00684 8.03058,-0.21252 16.07734,-0.57916 24.0669,-1.37567 8.62976,-0.86029 17.23511,-2.10296 25.79089,-3.53796 15.16724,-2.54395 30.32564,-5.17328 45.41379,-8.14264 7.1269,-1.40259 14.09,-3.64722 21.1116,-5.56757 2.391,-0.65387 4.7903,-1.34143 7.0893,-2.25616 9.733,-3.87232 19.5361,-7.59509 29.1054,-11.84192 7.6784,-3.40772 15.2046,-7.22894 22.5213,-11.35791 5.8701,-3.31274 11.3305,-7.35285 16.9576,-11.09308 1.0968,-0.729 2.2804,-1.41919 3.1564,-2.37305 4.8126,-5.24048 10.4037,-10.02539 14.0818,-15.98266 4.6018,-7.45337 10.1895,-14.81336 9.8698,-24.52082 -0.072,-2.20068 1.4949,-4.6383 2.7845,-6.66299 2.7449,-4.30972 6.271,-8.1795 8.5876,-12.68671 1.9186,-3.73285 3.2964,-8.06393 3.621,-12.23065 0.7303,-9.37533 -3.991,-16.65454 -11.1365,-22.0762 -5.0822,-3.85596 -10.5437,-7.87091 -16.4884,-9.74426 -5.8414,-1.84091 -12.5021,-1.2002 -18.8113,-1.41486 -12.6349,-0.42996 -25.2794,-0.60733 -37.9078,-1.16238 -1.4683,-0.0645 -2.8609,-1.85572 -4.2885,-2.84641 7.3662,-0.0181 14.7324,-0.0362 22.5714,-0.0765 0.8991,-0.0156 1.3252,-0.009 2.0707,-0.0132 0.7822,10e-4 1.245,0.0126 2.0552,0.008 1.077,-0.008 1.8069,9.5e-4 2.901,-0.002 2.4288,0.003 4.4934,0.019 7.0007,0.0142 17.4517,-0.004 34.4604,0.013 52.0115,0.2728 1.1593,0.0847 1.7762,-0.0737 2.3932,-0.23203 2.37,-0.002 4.7401,-0.004 7.5539,-0.001 2.9753,0.83991 5.4521,2.07419 8.0491,2.42981 5.8971,0.8075 11.8568,1.14881 17.7846,1.74497 4.4296,0.44555 7.4604,2.80337 10.122,6.42779 4.8985,6.67041 10.0376,13.26612 8.3533,22.10654 -1.0383,5.44962 -3.3776,10.64783 -5.079,15.97604 -0.98,3.06836 -2.7832,6.22419 -2.6092,9.24826 0.6498,11.29975 -0.5974,21.93055 -5.552,32.41346 -5.6774,12.01232 -13.7881,21.95251 -23.437,30.62939 -7.0066,6.3006 -14.6415,12.05206 -22.5816,17.13397 -16.7191,10.70093 -34.6671,19.10639 -53.6322,24.95349 -17.6105,5.42951 -35.5777,9.69385 -53.2308,14.99402 -18.7096,5.61719 -38.00875,5.54419 -57.16985,7.04022 -1.5291,0.11933 -2.9689,1.3819 -4.5138,2.49573 -1.1271,0.3877 -2.1906,0.39276 -3.6972,0.0474 -1.1971,-1.00336 -1.95115,-1.65637 -2.70524,-2.30933 -0.5539,0.88147 -1.10779,1.76294 -1.66169,2.64447 -2.03607,0.0164 -4.07214,0.0326 -6.54351,0.0565 -0.91962,-0.29291 -1.40393,-0.59339 -2.34168,-1.29932 -5.58343,-2.87396 -9.18866,-2.30524 -11.11102,1.27576 -2.6955,0.005 -5.39093,0.01 -8.53443,0.0221 -1.62188,-0.12378 -2.79565,-0.25457 -4.22424,-0.18847 -1.63537,0.19195 -3.01599,0.18701 -4.81054,0.18921 -0.97065,-0.0952 -1.52747,-0.19745 -2.26392,-0.146 -38.52686,0.13733 -76.87415,0.12091 -115.68933,0.0927 z"
         id="path36" /><path
         fill="#1b272c"
         opacity="1"
         stroke="none"
         d="m 1053.146,416.94141 c 1.7598,0.99417 3.1524,2.78537 4.6207,2.84989 12.6284,0.55505 25.2729,0.73242 37.9078,1.16238 6.3092,0.21466 12.9699,-0.42605 18.8113,1.41486 5.9447,1.87335 11.4062,5.8883 16.4884,9.74426 7.1455,5.42166 11.8668,12.70087 11.1365,22.0762 -0.3246,4.16672 -1.7024,8.4978 -3.621,12.23065 -2.3166,4.50721 -5.8427,8.37699 -8.5876,12.68671 -1.2896,2.02469 -2.8569,4.46231 -2.7845,6.66299 0.3197,9.70746 -5.268,17.06745 -9.8698,24.52082 -3.6781,5.95727 -9.2692,10.74218 -14.0818,15.98266 -0.876,0.95386 -2.0596,1.64405 -3.1564,2.37305 -5.6271,3.74023 -11.0875,7.78034 -16.9576,11.09308 -7.3167,4.12897 -14.8429,7.95019 -22.5213,11.35791 -9.5693,4.24683 -19.3724,7.9696 -29.1054,11.84192 -2.299,0.91473 -4.6983,1.60229 -7.0893,2.25616 -7.0216,1.92035 -13.9847,4.16498 -21.1116,5.56757 -15.08815,2.96936 -30.24655,5.59869 -45.41379,8.14264 -8.55578,1.435 -17.16113,2.67767 -25.79089,3.53796 -7.98956,0.79651 -16.03632,1.16315 -24.0669,1.37567 -17.9671,0.47553 -35.93914,0.94849 -53.91052,1.00684 -10.88147,0.0354 -21.80108,-0.28473 -32.63989,-1.19953 -15.823,-1.33551 -31.5965,-3.28198 -47.37598,-5.09918 -9.18506,-1.0578 -18.38153,-2.12738 -27.49585,-3.65185 -6.64593,-1.11164 -13.14752,-3.06147 -19.74707,-4.48114 -7.94616,-1.70941 -16.01281,-2.92291 -23.8753,-4.94269 -13.17639,-3.38495 -26.20996,-7.32221 -39.34961,-10.85614 -5.92011,-1.59223 -12.10889,-2.30304 -17.89545,-4.2478 -9.40973,-3.16248 -18.67444,-6.80738 -27.82983,-10.65442 -4.57807,-1.92365 -8.82764,-4.66144 -13.13971,-7.17847 -6.62348,-3.86615 -10.92194,-9.42212 -14.37805,-16.4541 -2.77723,-5.65094 -4.35645,-10.8725 -2.09626,-16.43066 3.21619,-7.90925 7.59925,-15.25489 14.45551,-20.74595 3.9671,-3.17712 7.77356,-6.58667 11.93902,-9.4786 17.04548,-11.8342 35.85077,-20.32386 55.18934,-27.45139 16.03118,-5.90854 32.58477,-10.38382 48.7677,-15.90219 10.1203,-3.45102 20.40814,-4.07623 30.96435,-4.23499 19.61548,-0.29501 39.2237,-1.18447 58.82709,-2.01141 1.97003,-0.0831 3.88653,-1.43613 5.97369,-2.53409 0.59015,-0.33606 1.03455,-0.3378 1.98908,0.007 6.14197,2.11591 11.7453,3.20035 17.15661,-0.34451 1.06647,-0.002 2.133,-0.004 3.73487,0.30746 2.40515,2.33902 3.97998,2.11808 5.2655,-0.30725 1.71399,-0.002 3.42804,-0.005 5.67157,0.27494 1.46253,0.0961 2.39545,-0.0896 3.32843,-0.27524 1.38861,-0.002 2.77716,-0.005 4.74316,0.32519 3.31061,2.13962 5.9466,2.81049 8.2566,-0.3251 3.36108,-0.002 6.7221,-0.005 10.70721,0.33011 3.68549,2.34055 6.62,2.69885 9.29285,-0.33176 2.0415,-0.003 4.08307,-0.005 6.63775,0.23105 1.1294,0.0816 1.74561,-0.0756 2.36182,-0.23279 2.04169,-0.002 4.08331,-0.005 6.63818,0.23224 1.12934,0.0816 1.74561,-0.076 2.36182,-0.23352 23.02081,-0.001 46.04156,-0.002 69.6068,0.23517 1.1608,0.0817 1.7772,-0.0755 2.3936,-0.23273 3.0304,-10e-4 6.0608,-0.003 9.7221,0.34314 2.6565,0.78223 4.6752,1.55948 6.7082,1.59851 19.10475,0.36676 38.21165,0.65378 57.31905,0.7623 1.0793,0.006 2.1687,-1.75336 3.2534,-2.6911 0.443,-0.002 0.8861,-0.004 1.6614,-0.002 z"
         id="path37" /><path
         fill="#1c272f"
         opacity="1"
         stroke="none"
         d="m 1051.0156,416.93671 c -0.6157,0.94467 -1.7051,2.7042 -2.7844,2.69803 -19.1074,-0.10852 -38.2143,-0.39554 -57.31905,-0.7623 -2.033,-0.039 -4.0517,-0.81628 -6.2541,-1.59533 21.84505,-0.34528 43.86695,-0.34632 66.35755,-0.3404 z"
         id="path38" /><path
         fill="#1c272f"
         opacity="1"
         stroke="none"
         d="m 833.11872,416.98048 c -5.04834,3.4974 -10.65167,2.41296 -16.46039,0.29949 5.24786,-0.31304 10.67267,-0.28256 16.46039,-0.29949 z"
         id="path39" /><path
         fill="#1c272f"
         opacity="1"
         stroke="none"
         d="m 884.03187,416.92673 c -2.22284,3.03525 -5.15735,2.67695 -8.38477,0.33957 2.53424,-0.33758 5.23443,-0.34091 8.38477,-0.33957 z"
         id="path40" /><path
         fill="#1c272f"
         opacity="1"
         stroke="none"
         d="m 864.10053,416.92908 c -1.92871,3.13953 -4.5647,2.46866 -7.45874,0.33228 2.25195,-0.33157 4.66473,-0.33389 7.45874,-0.33228 z"
         id="path41" /><path
         fill="#1c272f"
         opacity="1"
         stroke="none"
         d="m 842.06531,416.92823 c -0.86877,2.43033 -2.4436,2.65127 -4.44879,0.31561 1.25366,-0.31363 2.64288,-0.31711 4.44879,-0.31561 z"
         id="path42" /><path
         fill="#1c272f"
         opacity="1"
         stroke="none"
         d="m 851.10694,416.92835 c -0.55786,0.19025 -1.49078,0.37589 -2.5249,0.2832 0.6491,-0.28146 1.39941,-0.28463 2.5249,-0.2832 z"
         id="path43" /><path
         fill="#1c272f"
         opacity="1"
         stroke="none"
         d="m 974.14845,416.92725 c -0.283,0.16077 -0.8994,0.31793 -1.5916,0.23935 0.3689,-0.23813 0.8135,-0.24051 1.5916,-0.23935 z"
         id="path44" /><path
         fill="#1c272f"
         opacity="1"
         stroke="none"
         d="m 902.14814,416.92506 c -0.2829,0.16082 -0.89917,0.31839 -1.59101,0.23989 0.36878,-0.23837 0.81324,-0.24075 1.59101,-0.23989 z"
         id="path45" /><path
         fill="#1c272f"
         opacity="1"
         stroke="none"
         d="m 893.14814,416.92615 c -0.2829,0.16071 -0.89911,0.31791 -1.59101,0.23926 0.36878,-0.23816 0.81324,-0.24048 1.59101,-0.23926 z"
         id="path46" /><path
         fill="#1d2734"
         opacity="1"
         stroke="none"
         d="m 960.87635,604.90321 c 0.15277,-0.89417 0.70666,-1.77564 1.26056,-2.65711 0.75409,0.65296 1.50814,1.30597 2.30644,2.3017 -1.0258,0.35113 -2.09581,0.35955 -3.567,0.35541 z"
         id="path47" /><path
         fill="#1d2734"
         opacity="1"
         stroke="none"
         d="m 1144.1484,416.91053 c -0.2835,0.16315 -0.9004,0.3215 -1.5925,0.24194 0.3696,-0.24087 0.8143,-0.2438 1.5925,-0.24194 z"
         id="path48" /><path
         fill="#1d2734"
         opacity="1"
         stroke="none"
         d="m 940.93311,604.92982 c 1.46826,-3.58735 5.07349,-4.15607 10.37592,-1.34699 -0.0931,0.53174 -0.33338,0.75055 -0.69806,1.19098 -3.17432,0.18341 -6.19904,0.17291 -9.67786,0.15601 z"
         id="path49" /></g></g></svg>
