<?xml version="1.0" encoding="UTF-8" standalone="no"?>
<!-- Created with Inkscape (http://www.inkscape.org/) -->

<svg
   width="210mm"
   height="297mm"
   viewBox="0 0 210 297"
   version="1.1"
   id="svg1"
   xml:space="preserve"
   inkscape:version="1.3.2 (091e20e, 2023-11-25, custom)"
   sodipodi:docname="close.svg"
   xmlns:inkscape="http://www.inkscape.org/namespaces/inkscape"
   xmlns:sodipodi="http://sodipodi.sourceforge.net/DTD/sodipodi-0.dtd"
   xmlns="http://www.w3.org/2000/svg"
   xmlns:svg="http://www.w3.org/2000/svg"><sodipodi:namedview
     id="namedview1"
     pagecolor="#000000"
     bordercolor="#000000"
     borderopacity="0.25"
     inkscape:showpageshadow="2"
     inkscape:pageopacity="0.0"
     inkscape:pagecheckerboard="0"
     inkscape:deskcolor="#d1d1d1"
     inkscape:document-units="mm"
     inkscape:zoom="0.32917017"
     inkscape:cx="-258.2251"
     inkscape:cy="909.86372"
     inkscape:window-width="1920"
     inkscape:window-height="974"
     inkscape:window-x="-11"
     inkscape:window-y="-11"
     inkscape:window-maximized="1"
     inkscape:current-layer="layer1" /><defs
     id="defs1" /><g
     inkscape:label="Layer 1"
     inkscape:groupmode="layer"
     id="layer1"><g
       style="fill:#f5e7ff;fill-opacity:1"
       id="g1"
       transform="matrix(0.19945105,0,0,0.21077379,54.52256,79.644685)"><path
         d="M 285.08,230.397 456.218,59.27 c 6.076,-6.077 6.076,-15.911 0,-21.986 L 423.511,4.565 c -2.913,-2.911 -6.866,-4.55 -10.992,-4.55 -4.127,0 -8.08,1.639 -10.993,4.55 L 230.388,175.705 59.25,4.565 c -2.913,-2.911 -6.866,-4.55 -10.993,-4.55 -4.126,0 -8.08,1.639 -10.992,4.55 L 4.558,37.284 c -6.077,6.075 -6.077,15.909 0,21.986 L 175.696,230.398 4.575,401.505 c -6.074,6.077 -6.074,15.911 0,21.986 l 32.709,32.719 c 2.911,2.911 6.865,4.55 10.992,4.55 4.127,0 8.08,-1.639 10.994,-4.55 L 230.387,285.09 401.505,456.21 c 2.913,2.911 6.866,4.55 10.993,4.55 4.128,0 8.081,-1.639 10.992,-4.55 l 32.709,-32.719 c 6.074,-6.075 6.074,-15.909 0,-21.986 z"
         id="path1"
         style="fill:#f5e7ff;fill-opacity:1" /></g></g></svg>
