<?xml version="1.0" encoding="UTF-8" standalone="no"?>
<!-- Created with Inkscape (http://www.inkscape.org/) -->

<svg
   width="185mm"
   height="32mm"
   viewBox="0 0 185 32"
   version="1.1"
   id="svg1"
   xml:space="preserve"
   inkscape:version="1.3.2 (091e20e, 2023-11-25, custom)"
   sodipodi:docname="logonew.svg"
   xmlns:inkscape="http://www.inkscape.org/namespaces/inkscape"
   xmlns:sodipodi="http://sodipodi.sourceforge.net/DTD/sodipodi-0.dtd"
   xmlns="http://www.w3.org/2000/svg"
   xmlns:svg="http://www.w3.org/2000/svg"><sodipodi:namedview
     id="namedview1"
     pagecolor="#ffffff"
     bordercolor="#000000"
     borderopacity="0.25"
     inkscape:showpageshadow="2"
     inkscape:pageopacity="0.0"
     inkscape:pagecheckerboard="0"
     inkscape:deskcolor="#d1d1d1"
     inkscape:document-units="mm"
     showguides="false"
     inkscape:zoom="2.6333614"
     inkscape:cx="171.64374"
     inkscape:cy="78.037143"
     inkscape:window-width="1920"
     inkscape:window-height="974"
     inkscape:window-x="-11"
     inkscape:window-y="-11"
     inkscape:window-maximized="1"
     inkscape:current-layer="layer1" /><defs
     id="defs1" /><g
     inkscape:label="Layer 1"
     inkscape:groupmode="layer"
     id="layer1"><g
       id="g7"
       transform="translate(-9.0615959,-129.95361)"
       style="fill:#f5e7ff;fill-opacity:1"><path
         style="fill:#f5e7ff;fill-opacity:1"
         d="m 25.09506,126.8449 c 0.03896,-0.0724 0.09358,-0.13163 0.12138,-0.13163 0.0278,0 0.05054,0.0592 0.05054,0.13163 0,0.0724 -0.05462,0.13162 -0.121379,0.13162 -0.06676,0 -0.0895,-0.0592 -0.05054,-0.13162 z m 27.618176,-12.37282 c 0,-3.65591 0.01471,-5.15151 0.03268,-3.32355 0.01797,1.82795 0.01797,4.81914 0,6.6471 -0.01797,1.82795 -0.03268,0.33235 -0.03268,-3.32355 z m 7.789166,3.88296 c 9.3e-5,-1.52028 0.01678,-2.12419 0.03708,-1.34201 0.0203,0.78217 0.02022,2.02603 -1.7e-4,2.76414 -0.02039,0.7381 -0.037,0.0981 -0.03691,-1.42213 z m 32.211582,-3.88296 c 0,-3.65591 0.01471,-5.15151 0.03268,-3.32355 0.01797,1.82795 0.01797,4.81914 0,6.6471 -0.01797,1.82795 -0.03268,0.33235 -0.03268,-3.32355 z m 76.328186,1.57951 c 0,-1.3393 0.017,-1.88719 0.0378,-1.21754 0.0208,0.66964 0.0208,1.76543 0,2.43507 -0.0208,0.66965 -0.0378,0.12176 -0.0378,-1.21753 z m -142.514418,0.87168 c 0,-0.0273 0.09026,-0.13099 0.200577,-0.23035 0.181786,-0.16372 0.18584,-0.15906 0.04327,0.0497 -0.14973,0.21926 -0.24385,0.28898 -0.24385,0.18065 z m 132.084208,-2.51701 c 1.2e-4,-1.30309 0.0173,-1.81837 0.0381,-1.14506 0.0208,0.6733 0.0207,1.73947 -2.2e-4,2.36926 -0.021,0.62979 -0.038,0.0789 -0.0379,-1.2242 z m 13.5287,-2.10601 c 4e-5,-2.4614 0.0155,-3.44974 0.0344,-2.1963 0.0189,1.25343 0.0188,3.2673 -7e-5,4.47527 -0.0189,1.20797 -0.0343,0.18243 -0.0343,-2.27897 z m -82.565432,4.06943 c 0.0055,-0.15334 0.03266,-0.18452 0.06925,-0.0795 0.03311,0.095 0.02904,0.20854 -0.009,0.25228 -0.03809,0.0437 -0.06517,-0.034 -0.0602,-0.17276 z m -72.822526,-1.23916 c 0.328701,-0.39145 0.614641,-0.68493 0.635423,-0.65218 0.02078,0.0327 -0.248155,0.35303 -0.597637,0.71172 l -0.635423,0.65218 z m -0.826868,-0.52682 c 0.437888,-0.50676 0.821948,-0.92138 0.853468,-0.92138 0.03152,0 -0.300965,0.41462 -0.738852,0.92138 -0.437888,0.50676 -0.821948,0.92138 -0.853467,0.92138 -0.03152,0 0.300964,-0.41462 0.738851,-0.92138 z m 12.149225,0.52651 c 0.114098,-0.14479 0.233239,-0.26326 0.264758,-0.26326 0.03152,0 -0.03605,0.11847 -0.150143,0.26326 -0.114098,0.14478 -0.233239,0.26325 -0.264759,0.26325 -0.03152,0 0.03605,-0.11847 0.150144,-0.26325 z m 165.369291,-0.78976 c 0,-0.47056 0.0208,-0.66306 0.0462,-0.42778 0.0254,0.23528 0.0254,0.62028 0,0.85556 -0.0254,0.23529 -0.0462,0.0428 -0.0462,-0.42778 z m -30.60346,-0.0658 c 6.4e-4,-0.43437 0.022,-0.59619 0.0476,-0.35962 0.0255,0.23658 0.025,0.59197 -10e-4,0.78976 -0.0262,0.19779 -0.047,0.004 -0.0464,-0.43014 z m -74.091638,-0.55941 c -0.142566,-0.20877 -0.138512,-0.21342 0.04327,-0.0497 0.110317,0.0994 0.200577,0.20301 0.200577,0.23035 0,0.10833 -0.09412,0.0386 -0.243851,-0.18065 z m -4.707165,-0.65767 c 0.649497,-0.0235 1.681035,-0.0234 2.292306,2.2e-4 0.611272,0.0236 0.07986,0.0429 -1.180903,0.0427 -1.260769,-1.2e-4 -1.7609,-0.0194 -1.111403,-0.043 z m 30.366963,8e-5 c 0.64614,-0.0235 1.70347,-0.0235 2.34961,0 0.64615,0.0235 0.11749,0.0427 -1.1748,0.0427 -1.29229,0 -1.82095,-0.0192 -1.17481,-0.0427 z M 60.502047,110.4575 c -1.01e-4,-1.44788 0.01665,-2.05816 0.03721,-1.35617 0.02057,0.702 0.02065,1.88663 1.84e-4,2.63252 -0.02047,0.74589 -0.0373,0.17153 -0.0374,-1.27635 z m -10.927567,1.70017 c 0.0055,-0.15334 0.03266,-0.18453 0.06925,-0.0795 0.03311,0.095 0.02904,0.20855 -0.009,0.25229 -0.03809,0.0437 -0.06517,-0.034 -0.0602,-0.17276 z m 89.9995,-0.64716 c 6.4e-4,-0.43437 0.022,-0.59619 0.0476,-0.35962 0.0255,0.23658 0.025,0.59197 -0.001,0.78976 -0.0262,0.19778 -0.047,0.004 -0.0464,-0.43014 z m -116.663821,-10.36553 -0.336636,-0.42779 0.3725,0.3866 c 0.204875,0.21263 0.3725,0.40513 0.3725,0.42778 0,0.10169 -0.09457,0.0122 -0.408364,-0.38659 z"
         id="path12" /><path
         style="fill:#f5e7ff;fill-opacity:1"
         d="m 23.404484,130.04837 c 0.0788,-0.0365 0.207741,-0.0365 0.286539,0 0.0788,0.0365 0.01433,0.0664 -0.14327,0.0664 -0.157596,0 -0.222067,-0.0299 -0.143269,-0.0664 z M 12.97449,126.48875 c 0.141836,-0.0314 0.373932,-0.0314 0.515769,0 0.141836,0.0314 0.02579,0.0571 -0.257885,0.0571 -0.283673,0 -0.399721,-0.0257 -0.257884,-0.0571 z m 0.171923,-0.78759 c 0.110317,-0.0331 0.290836,-0.0331 0.401154,0 0.110317,0.0331 0.02006,0.0602 -0.200577,0.0602 -0.220635,0 -0.310894,-0.0271 -0.200577,-0.0602 z m 0.522932,-1.05219 c 0.08274,-0.038 0.181594,-0.0333 0.21968,0.0104 0.03809,0.0437 -0.02961,0.0748 -0.150433,0.0691 -0.13352,-0.006 -0.160679,-0.0375 -0.06925,-0.0795 z m 12.078444,-2.34516 c 0.0023,-0.21718 0.02802,-0.2901 0.05708,-0.16203 0.02906,0.12807 0.02715,0.30576 -0.0042,0.39488 -0.0314,0.0891 -0.05517,-0.0157 -0.05284,-0.23285 z m -13.109982,-0.81386 c 0.08274,-0.038 0.181594,-0.0333 0.21968,0.0104 0.03808,0.0437 -0.02961,0.0749 -0.150433,0.0691 -0.13352,-0.006 -0.160679,-0.0375 -0.06925,-0.0795 z m 15.007444,0.003 c 0.0788,-0.0365 0.207741,-0.0365 0.286539,0 0.0788,0.0365 0.01433,0.0664 -0.14327,0.0664 -0.157596,0 -0.222067,-0.0299 -0.143269,-0.0664 z m 82.933139,-1.29489 c 5.1e-4,-0.50676 0.0212,-0.69794 0.046,-0.42485 0.0248,0.27309 0.0244,0.68771 -9.2e-4,0.92138 -0.0253,0.23367 -0.0456,0.0102 -0.0451,-0.49653 z m 49.00313,0.23034 c -0.14256,-0.20876 -0.13851,-0.21342 0.0433,-0.0497 0.19092,0.17195 0.25163,0.28004 0.1573,0.28004 -0.0238,0 -0.11406,-0.10366 -0.20058,-0.23035 z m -69.978655,-3.0603 c 0,-0.47056 0.0208,-0.66306 0.04623,-0.42778 0.02542,0.23528 0.02542,0.62029 0,0.85557 -0.02542,0.23528 -0.04623,0.0428 -0.04623,-0.42779 z m -68.025062,-0.0899 c 0.08274,-0.038 0.181593,-0.0333 0.219679,0.0104 0.03809,0.0437 -0.02961,0.0748 -0.150433,0.0691 -0.13352,-0.006 -0.160679,-0.0375 -0.06925,-0.0795 z m 0.802307,-0.13163 c 0.08274,-0.038 0.181593,-0.0333 0.219679,0.0104 0.03809,0.0437 -0.02961,0.0748 -0.150432,0.0691 -0.133521,-0.006 -0.16068,-0.0375 -0.06925,-0.0795 z m 3.492732,-0.89728 c 8.6e-4,-0.36197 0.02312,-0.49442 0.04946,-0.29434 0.02635,0.20008 0.02564,0.49623 -0.0016,0.65812 -0.0272,0.1619 -0.04876,-0.002 -0.0479,-0.36378 z m 129.648678,-3.88296 c 0,-2.4976 0.0154,-3.51934 0.0342,-2.27054 0.0188,1.2488 0.0188,3.29229 0,4.54109 -0.0188,1.2488 -0.0342,0.22705 -0.0342,-2.27055 z m -2.17784,-0.13162 c 0,-2.42521 0.0155,-3.41734 0.0344,-2.20473 0.0189,1.2126 0.0189,3.19686 0,4.40946 -0.0189,1.2126 -0.0344,0.22047 -0.0344,-2.20473 z m -40.76131,3.33235 c 0.0827,-0.038 0.18159,-0.0333 0.21968,0.0104 0.0381,0.0437 -0.0296,0.0748 -0.15043,0.0691 -0.13352,-0.006 -0.16068,-0.0375 -0.0692,-0.0795 z m 0.17162,-4.05629 c 6.4e-4,-0.43437 0.022,-0.59619 0.0476,-0.35962 0.0255,0.23658 0.025,0.59197 -0.001,0.78976 -0.0262,0.19778 -0.047,0.004 -0.0464,-0.43014 z m -63.17951,-0.27422 c 0.0055,-0.15334 0.03266,-0.18453 0.06925,-0.0795 0.03311,0.095 0.02904,0.20855 -0.009,0.25228 -0.03809,0.0437 -0.06517,-0.034 -0.0602,-0.17275 z m 135.49492,-1.33623 c 0.29943,-0.0271 0.78941,-0.0271 1.08884,0 0.29944,0.0271 0.0545,0.0493 -0.54442,0.0493 -0.59887,0 -0.84386,-0.0222 -0.54442,-0.0493 z m -16.03929,-1.15369 c 6.5e-4,-0.43437 0.022,-0.5962 0.0476,-0.35962 0.0255,0.23658 0.025,0.59197 -0.001,0.78976 -0.0262,0.19778 -0.047,0.004 -0.0464,-0.43014 z M 33.092042,107.49591 c 0,-0.32577 0.02235,-0.45904 0.04967,-0.29616 0.02732,0.16289 0.02732,0.42943 0,0.59232 -0.02732,0.16289 -0.04967,0.0296 -0.04967,-0.29616 z m -20.805244,0.3077 c 0.0788,-0.0365 0.20774,-0.0365 0.286538,0 0.0788,0.0365 0.01433,0.0664 -0.143269,0.0664 -0.157596,0 -0.222067,-0.0299 -0.143269,-0.0664 z m 4.532997,-0.70258 c 0,-0.39816 0.02149,-0.56105 0.04775,-0.36197 0.02626,0.19909 0.02626,0.52486 0,0.72394 -0.02626,0.19909 -0.04775,0.0362 -0.04775,-0.36197 z m 169.919065,0.2963 c 1.21764,-0.0213 3.17756,-0.0213 4.35539,7e-5 1.17782,0.0214 0.18157,0.0388 -2.21389,0.0388 -2.39546,-4e-5 -3.35914,-0.0175 -2.1415,-0.0389 z M 29.653201,103.98242 c 0.111517,-0.0334 0.266247,-0.0312 0.343846,0.005 0.0776,0.0361 -0.01364,0.0634 -0.202758,0.0607 -0.189116,-0.003 -0.252605,-0.0322 -0.141088,-0.0656 z M 19.285496,99.903326 c 0.08274,-0.03802 0.181594,-0.03335 0.219679,0.01039 0.03809,0.04374 -0.02961,0.07485 -0.150432,0.06913 -0.13352,-0.0063 -0.160679,-0.0375 -0.06925,-0.07952 z"
         id="path11" /><path
         style="fill:#f5e7ff;fill-opacity:1"
         d="m 24.923137,129.42772 c 0,-0.0273 0.09026,-0.13099 0.200577,-0.23035 0.181786,-0.16372 0.18584,-0.15907 0.04327,0.0497 -0.14973,0.21925 -0.243851,0.28898 -0.243851,0.18065 z m -0.687692,-0.65813 c 0,-0.0273 0.09026,-0.13099 0.200577,-0.23035 0.181786,-0.16372 0.18584,-0.15907 0.04327,0.0497 -0.14973,0.21926 -0.243851,0.28898 -0.243851,0.18065 z m 30.650806,-10.41455 c 9.3e-5,-1.52028 0.01678,-2.12419 0.03708,-1.34201 0.0203,0.78217 0.02022,2.02603 -1.7e-4,2.76414 -0.02039,0.7381 -0.037,0.0981 -0.03691,-1.42213 z m 7.798443,-3.88296 c 0,-3.58352 0.01474,-5.0495 0.03275,-3.25774 0.01801,1.79175 0.01801,4.72372 0,6.51547 -0.01801,1.79176 -0.03275,0.32578 -0.03275,-3.25773 z m 32.206944,-0.0658 c 2e-5,-3.61971 0.01475,-5.08156 0.03273,-3.24857 0.01798,1.833 0.01797,4.79458 -3.7e-5,6.58129 -0.01801,1.78672 -0.03272,0.28699 -0.0327,-3.33272 z m 86.173082,5.79154 c 6.5e-4,-0.43437 0.022,-0.59619 0.0476,-0.35962 0.0255,0.23658 0.025,0.59197 -0.001,0.78976 -0.0262,0.19779 -0.047,0.004 -0.0464,-0.43014 z m -26.74088,0.41099 c 0,-0.0273 0.0903,-0.13099 0.20057,-0.23034 0.18179,-0.16373 0.18584,-0.15907 0.0433,0.0497 -0.14973,0.21926 -0.24385,0.28898 -0.24385,0.18065 z m -12.57008,-3.17513 c 5.1e-4,-0.50676 0.0212,-0.69794 0.046,-0.42485 0.0248,0.27309 0.0244,0.68771 -9.3e-4,0.92138 -0.0253,0.23366 -0.0456,0.0102 -0.0451,-0.49653 z m 25.18681,0.64716 c 0.005,-0.15334 0.0327,-0.18453 0.0692,-0.0795 0.0331,0.095 0.029,0.20855 -0.009,0.25229 -0.0381,0.0437 -0.0652,-0.034 -0.0602,-0.17276 z m -79.513547,-0.8446 c 0,-0.54296 0.02023,-0.76508 0.04496,-0.4936 0.02473,0.27148 0.02473,0.71572 0,0.98719 -0.02473,0.27148 -0.04496,0.0494 -0.04496,-0.49359 z m 79.544547,-0.65813 c 0,-0.61535 0.0197,-0.86709 0.0439,-0.55941 0.0241,0.30767 0.0241,0.81114 0,1.11882 -0.0241,0.30767 -0.0439,0.0559 -0.0439,-0.55941 z m -13.66117,0.26325 c 0,-0.18099 0.026,-0.25502 0.0578,-0.16453 0.0318,0.0905 0.0318,0.23857 0,0.32906 -0.0318,0.0905 -0.0578,0.0165 -0.0578,-0.16453 z m 7.47903,-2.36926 c 0,-1.2669 0.0172,-1.78518 0.0382,-1.15173 0.021,0.63345 0.021,1.67 0,2.30345 -0.021,0.63345 -0.0382,0.11517 -0.0382,-1.15172 z m -133.402063,1.44788 c 0.246221,-0.28958 0.473464,-0.5265 0.504983,-0.5265 0.03152,0 -0.144146,0.23692 -0.390368,0.5265 -0.246221,0.28958 -0.473464,0.5265 -0.504983,0.5265 -0.03152,0 0.144146,-0.23692 0.390368,-0.5265 z m -11.461533,0.13163 c 0.114098,-0.14479 0.23324,-0.26326 0.264759,-0.26326 0.03152,0 -0.03605,0.11847 -0.150143,0.26326 -0.114098,0.14478 -0.23324,0.26325 -0.264759,0.26325 -0.03152,0 0.03604,-0.11847 0.150143,-0.26325 z m 10.441801,0.15356 c -0.03247,-0.0603 0.0138,-0.10969 0.102809,-0.10969 0.08901,0 0.135276,0.0494 0.102809,0.10969 -0.03247,0.0603 -0.07873,0.10969 -0.102809,0.10969 -0.02408,0 -0.07034,-0.0494 -0.102809,-0.10969 z m 57.158816,-0.64674 c 0.681089,-0.0233 1.764204,-0.0232 2.406921,2e-4 0.642718,0.0234 0.08546,0.0425 -1.238344,0.0424 -1.323807,-10e-5 -1.849667,-0.0193 -1.168577,-0.0426 z m 30.424139,1.2e-4 c 0.64614,-0.0235 1.70347,-0.0235 2.34961,0 0.64615,0.0235 0.11748,0.0427 -1.1748,0.0427 -1.29229,0 -1.82095,-0.0192 -1.17481,-0.0427 z m -59.064694,-5.10104 c -1.01e-4,-1.44788 0.01664,-2.05816 0.03721,-1.35617 0.02057,0.702 0.02065,1.88663 1.84e-4,2.63252 -0.02047,0.74589 -0.0373,0.17153 -0.0374,-1.27635 z m 55.693424,0.98719 c 0,-0.54295 0.0202,-0.76507 0.045,-0.49359 0.0247,0.27148 0.0247,0.71571 0,0.98719 -0.0247,0.27148 -0.045,0.0494 -0.045,-0.4936 z m 77.70632,-1.54636 c 0.93367,-0.0221 2.4294,-0.0221 3.32384,1.1e-4 0.89444,0.0222 0.13053,0.0403 -1.69759,0.0403 -1.82811,-6e-5 -2.55993,-0.0182 -1.62625,-0.0404 z m -99.026621,-1.21778 c 0,-0.47056 0.0208,-0.66306 0.04623,-0.42778 0.02542,0.23528 0.02542,0.62029 0,0.85557 -0.02542,0.23528 -0.04623,0.0428 -0.04623,-0.42779 z m -58.50512,-3.38936 c -0.142567,-0.20877 -0.138513,-0.21342 0.04327,-0.0497 0.19092,0.17195 0.251635,0.28004 0.157303,0.28004 -0.0238,0 -0.11406,-0.10365 -0.200577,-0.23034 z m -12.607686,-1.71114 c -0.142566,-0.20876 -0.138512,-0.21342 0.04327,-0.0497 0.19092,0.17195 0.251636,0.28004 0.157303,0.28004 -0.0238,0 -0.11406,-0.10366 -0.200577,-0.23035 z m 3.041036,-1.77694 -0.21834,-0.29616 0.257884,0.25074 c 0.242348,0.23564 0.310062,0.34157 0.218341,0.34157 -0.02175,0 -0.137797,-0.13327 -0.257885,-0.29615 z"
         id="path10" /><path
         style="fill:#f5e7ff;fill-opacity:1"
         d="m 22.218787,128.3915 -0.21834,-0.29616 0.257884,0.25075 c 0.242348,0.23564 0.310062,0.34157 0.218341,0.34157 -0.02175,0 -0.137797,-0.13327 -0.257885,-0.29616 z m 2.263835,-1.23947 c 0.294704,-0.36026 0.450667,-0.42037 0.171491,-0.0661 -0.104465,0.13256 -0.164036,0.27077 -0.132379,0.30712 0.03166,0.0364 -0.02072,0.0661 -0.116399,0.0661 -0.133449,0 -0.115452,-0.0715 0.07729,-0.30712 z m -0.07525,-2.14989 c 0.03896,-0.0724 0.09358,-0.13163 0.12138,-0.13163 0.0278,0 0.05054,0.0592 0.05054,0.13163 0,0.0724 -0.05462,0.13162 -0.121379,0.13162 -0.06676,0 -0.0895,-0.0592 -0.05054,-0.13162 z m 123.705748,-3.64381 c 0.0827,-0.038 0.18159,-0.0333 0.21968,0.0104 0.0381,0.0437 -0.0296,0.0748 -0.15043,0.0691 -0.13352,-0.006 -0.16068,-0.0375 -0.0692,-0.0795 z m 4.01154,0 c 0.0827,-0.038 0.18159,-0.0333 0.21967,0.0104 0.0381,0.0437 -0.0296,0.0748 -0.15043,0.0691 -0.13352,-0.006 -0.16068,-0.0375 -0.0692,-0.0795 z m 36.95627,-0.008 c 0.74071,-0.0229 1.95276,-0.0229 2.69346,0 0.74071,0.0229 0.13468,0.0417 -1.34673,0.0417 -1.4814,0 -2.08743,-0.0188 -1.34673,-0.0417 z M 41.705319,118.28922 c 0,-1.48408 0.01671,-2.0912 0.03714,-1.34916 0.02043,0.74204 0.02043,1.95629 0,2.69833 -0.02043,0.74204 -0.03714,0.13491 -0.03714,-1.34917 z m 58.849311,0.29616 c -0.14257,-0.20876 -0.13851,-0.21342 0.0433,-0.0497 0.19092,0.17195 0.25164,0.28004 0.15731,0.28004 -0.0238,0 -0.11406,-0.10366 -0.20058,-0.23035 z m -75.516877,-0.74073 c 0,-0.0273 0.09026,-0.13099 0.200576,-0.23034 0.181787,-0.16373 0.185841,-0.15907 0.04327,0.0497 -0.14973,0.21926 -0.24385,0.28898 -0.24385,0.18065 z m 7.779222,-0.31227 c -0.142567,-0.20877 -0.138513,-0.21343 0.04327,-0.0497 0.110318,0.0994 0.200577,0.20301 0.200577,0.23034 0,0.10834 -0.09412,0.0386 -0.24385,-0.18064 z m 141.458975,-0.50457 c 0.006,-0.15334 0.0327,-0.18453 0.0693,-0.0795 0.0331,0.095 0.029,0.20854 -0.009,0.25228 -0.0381,0.0437 -0.0652,-0.034 -0.0602,-0.17276 z m 12.04791,-0.38391 c 0.002,-0.21718 0.028,-0.29009 0.0571,-0.16203 0.0291,0.12807 0.0271,0.30577 -0.004,0.39488 -0.0314,0.0891 -0.0552,-0.0157 -0.0528,-0.23285 z m -86.16571,-2.23764 c 1.2e-4,-1.30309 0.0173,-1.81837 0.0381,-1.14506 0.0209,0.6733 0.0208,1.73947 -2.2e-4,2.36926 -0.021,0.62979 -0.038,0.0789 -0.0379,-1.2242 z m 46.88168,-2.0402 c 0,-2.4252 0.0155,-3.41733 0.0344,-2.20473 0.0189,1.2126 0.0189,3.19686 0,4.40947 -0.0189,1.2126 -0.0344,0.22047 -0.0344,-2.20474 z m -132.202841,3.63583 c 0,-0.0273 0.09026,-0.13099 0.200577,-0.23035 0.181786,-0.16372 0.18584,-0.15907 0.04327,0.0497 -0.14973,0.21926 -0.24385,0.28898 -0.24385,0.18065 z m 41.404785,-0.44353 c 0.80374,-0.0226 2.118951,-0.0226 2.922691,0 0.80374,0.0226 0.146135,0.0411 -1.461345,0.0411 -1.60748,0 -2.265086,-0.0185 -1.461346,-0.0411 z m 131.807626,-9e-5 c 0.92981,-0.0221 2.45133,-0.0221 3.38115,0 0.92981,0.0221 0.16906,0.0402 -1.69058,0.0402 -1.85963,0 -2.62039,-0.0181 -1.69057,-0.0402 z m -159.238016,-0.65841 -0.277864,-0.36197 0.315192,0.3191 c 0.294595,0.29825 0.367754,0.40484 0.277864,0.40484 -0.02053,0 -0.162368,-0.16289 -0.315192,-0.36197 z m 106.521826,-0.4936 c 6.4e-4,-0.43436 0.022,-0.59619 0.0476,-0.35961 0.0255,0.23658 0.025,0.59197 -0.001,0.78975 -0.0262,0.19779 -0.047,0.004 -0.0464,-0.43014 z m 48.91427,-0.011 c 0.006,-0.15333 0.0327,-0.18452 0.0693,-0.0795 0.0331,0.095 0.029,0.20855 -0.009,0.25228 -0.0381,0.0437 -0.0652,-0.034 -0.0602,-0.17276 z M 10.810833,114.11011 c -0.142567,-0.20877 -0.138513,-0.21343 0.04327,-0.0497 0.190921,0.17195 0.251636,0.28004 0.157304,0.28004 -0.0238,0 -0.11406,-0.10365 -0.200577,-0.23034 z m -0.626655,-0.72395 -0.2183403,-0.29615 0.2578843,0.25074 c 0.141837,0.13791 0.257885,0.27118 0.257885,0.29616 0,0.10533 -0.09224,0.0276 -0.297429,-0.25075 z m 6.715887,0.24647 c 0,-0.0273 0.09026,-0.13099 0.200577,-0.23035 0.181786,-0.16372 0.18584,-0.15907 0.04327,0.0497 -0.14973,0.21925 -0.24385,0.28898 -0.24385,0.18065 z m 24.677959,-0.44367 c 0.933674,-0.0221 2.429404,-0.0221 3.323845,1.1e-4 0.894441,0.0222 0.130527,0.0403 -1.697588,0.0403 -1.828114,-7e-5 -2.55993,-0.0182 -1.626257,-0.0404 z m 99.206586,-5.13364 c -0.14257,-0.20877 -0.13851,-0.21342 0.0433,-0.0497 0.11032,0.0994 0.20058,0.20302 0.20058,0.23035 0,0.10833 -0.0941,0.0386 -0.24385,-0.18065 z M 21.599293,102.62576 c 0,-0.0724 0.05462,-0.13163 0.12138,-0.13163 0.06676,0 0.0895,0.0592 0.05054,0.13163 -0.03896,0.0724 -0.09358,0.13162 -0.12138,0.13162 -0.0278,0 -0.05054,-0.0592 -0.05054,-0.13162 z m 0.214611,-1.15173 c -0.142567,-0.20876 -0.138513,-0.21342 0.04327,-0.0497 0.110318,0.0994 0.200577,0.20301 0.200577,0.23034 0,0.10833 -0.09412,0.0386 -0.24385,-0.18065 z"
         id="path8" /><path
         style="fill:#f5e7ff;fill-opacity:1;stroke-width:0.997273"
         d="m 22.908705,161.19829 c -1.004151,-0.57394 -1.610513,-1.67761 -2.595663,-4.72448 -0.292482,-0.90459 -0.552335,-1.66937 -0.577451,-1.69952 -0.02511,-0.0301 -0.699702,0.30721 -1.499081,0.74966 -1.929884,1.0682 -3.062206,1.49301 -4.189202,1.57166 -0.839697,0.0586 -0.960927,0.0338 -1.530536,-0.31353 -0.464618,-0.28328 -0.68453,-0.52111 -0.883431,-0.95543 -0.369416,-0.80664 -0.361649,-1.93649 0.01981,-2.88266 l 0.282411,-0.70049 -0.283525,-0.48179 c -0.328161,-0.55765 -0.349433,-0.8131 -0.111876,-1.34355 0.227599,-0.50821 0.896474,-0.75736 1.44209,-0.53715 0.376576,0.15199 0.388163,0.14476 0.975114,-0.60806 0.326706,-0.41904 0.592318,-0.82111 0.59025,-0.89351 -0.0021,-0.0724 -0.58646,-0.56967 -1.298651,-1.10507 -3.3169847,-2.49357 -4.5823776,-5.15054 -3.2532347,-6.8309 0.9151597,-1.15697 2.1963517,-1.32874 5.2187987,-0.69966 1.080838,0.22496 1.991342,0.40902 2.023341,0.40902 0.032,0 0.05818,-0.68037 0.05818,-1.51193 v -1.51193 l -0.379831,-0.18325 c -0.208906,-0.10079 -0.495918,-0.35332 -0.637804,-0.56118 -0.500829,-0.7337 -0.07607,-1.92256 0.750887,-2.1017 0.290177,-0.0629 0.381003,-0.14943 0.381852,-0.36398 0.0018,-0.45372 0.513718,-1.59441 0.854419,-1.90386 0.712278,-0.64696 1.96661,-0.69391 2.832361,-0.10602 1.212316,0.82323 2.436021,2.87885 3.379585,5.67715 0.146464,0.43436 0.277674,0.80791 0.291576,0.83011 0.0139,0.0222 0.354118,-0.19206 0.756037,-0.47611 2.62791,-1.85729 3.813491,-2.44975 4.730061,-2.36366 1.028759,0.0966 1.829245,1.00456 2.081063,2.36039 0.263692,1.41977 -0.49058,3.62399 -2.072482,6.05644 -0.430647,0.6622 -0.793046,1.25033 -0.805331,1.30696 -0.01228,0.0566 0.721455,0.61655 1.630534,1.24427 1.946634,1.34416 2.741763,2.08647 3.067696,2.86391 0.603385,1.43925 0.0298,2.96396 -1.426449,3.79177 -0.580131,0.32978 -0.793427,0.53404 -0.966333,0.9254 -0.122035,0.27621 -0.358251,0.60538 -0.524924,0.73149 -0.630812,0.47726 -1.553969,0.18199 -1.955263,-0.6254 -0.195277,-0.39288 -0.26452,-0.4179 -1.626142,-0.58756 l -0.638633,-0.0796 -0.07813,1.22458 c -0.280468,4.39559 -1.328228,6.68732 -3.057212,6.68695 -0.268953,-5e-5 -0.707648,-0.12507 -0.97488,-0.27781 z m 1.858606,-1.07125 c 0.353267,-0.37737 1.028809,-1.91062 0.904867,-2.05373 -0.02497,-0.0288 -0.170512,0.1179 -0.323426,0.32607 -0.152914,0.20817 -0.440938,0.48809 -0.640052,0.62203 -0.324931,0.21857 -0.310228,0.18371 0.143495,-0.3402 0.794558,-0.91748 1.089579,-1.60464 1.175927,-2.73896 l 0.07471,-0.98152 -0.340019,0.5265 c -0.403423,0.62469 -0.829358,1.08284 -0.829358,0.89209 0,-0.0748 0.08579,-0.2172 0.190652,-0.31656 0.42414,-0.40189 1.063265,-1.73254 1.060686,-2.20835 l -0.0026,-0.47319 -1.721453,-0.49171 -1.721452,-0.49172 -0.413317,0.37791 c -0.227324,0.20785 -0.739216,0.59844 -1.137537,0.86796 -0.673548,0.45577 -0.719621,0.51662 -0.658473,0.86966 0.129466,0.74747 1.351141,4.14613 1.732679,4.82025 0.704156,1.24413 1.767425,1.58098 2.504629,0.79347 z m -9.010137,-4.36319 c 1.262167,-0.48756 3.736653,-1.89745 3.674451,-2.0936 -0.02746,-0.0866 -0.19859,-0.79198 -0.380301,-1.56758 l -0.330381,-1.41019 -1.095977,-0.52289 c -0.602789,-0.28759 -1.3438,-0.70437 -1.646692,-0.92618 -0.302892,-0.2218 -0.588754,-0.40328 -0.635248,-0.40328 -0.0465,0 -0.375533,0.39608 -0.731197,0.88018 -0.620794,0.84496 -0.643931,0.90319 -0.578358,1.4556 0.131172,1.10506 -0.370062,1.84597 -1.14996,1.69983 -0.36583,-0.0686 -0.40318,-0.0414 -0.567848,0.41349 -0.39377,1.08767 -0.126085,2.37188 0.570612,2.73748 0.525671,0.27585 1.771641,0.16177 2.870899,-0.26286 z m 5.388312,-3.03555 c 0.453313,-0.28671 0.823955,-0.55325 0.82365,-0.59231 -5.3e-4,-0.0676 -2.042727,-0.92659 -2.202862,-0.92659 -0.12293,0 -0.09098,0.24417 0.158542,1.21163 0.12922,0.50103 0.271289,0.89242 0.315705,0.86976 0.04442,-0.0227 0.451651,-0.27578 0.904965,-0.56249 z m 8.042611,-0.0673 c 0.404147,-0.79001 1.56717,-0.83064 2.321802,-0.0811 0.265132,0.26334 0.360424,0.28865 0.65704,0.17453 0.900675,-0.34654 1.562838,-1.30787 1.562838,-2.26895 0,-0.79521 -0.315515,-1.34641 -1.16419,-2.03382 -0.677298,-0.54859 -0.998485,-0.63232 -0.65877,-0.17172 0.09377,0.12713 0.284505,0.46808 0.423859,0.75765 0.149882,0.31145 0.169201,0.39399 0.0473,0.20207 -1.042155,-1.64072 -1.218147,-1.85259 -1.909913,-2.2993 -0.399861,-0.25821 -0.761526,-0.46947 -0.8037,-0.46947 -0.04218,0 0.100589,0.28135 0.317248,0.62522 0.216661,0.34387 0.478239,0.83253 0.581285,1.08591 0.103047,0.25338 0.122508,0.34716 0.04324,0.2084 -0.417374,-0.7307 -1.553189,-2.25088 -1.692871,-2.26574 -0.08861,-0.009 -0.609034,0.52584 -1.156503,1.1895 l -0.995397,1.20665 0.111306,0.78488 c 0.06122,0.43169 0.111603,1.41787 0.111966,2.19153 l 6.6e-4,1.40663 0.370472,0.0531 c 0.203759,0.0292 0.654364,0.0626 1.001343,0.0742 0.587184,0.0196 0.644728,-0.006 0.830981,-0.3701 z m -2.97835,-1.68194 c 0.02461,-0.99542 0.03107,-1.83288 0.01436,-1.86103 -0.01672,-0.0281 -0.410323,0.33296 -0.874682,0.80247 -0.46436,0.46951 -1.131576,1.11273 -1.482702,1.42939 -0.351127,0.31666 -0.601001,0.61584 -0.555276,0.66486 0.07082,0.0759 1.942051,0.58688 2.779241,0.7589 0.04087,0.008 0.09444,-0.79917 0.119061,-1.79459 z m -3.181096,0.60632 c 0.263957,-0.15518 1.108297,-0.93028 1.876313,-1.72244 l 1.39639,-1.4403 -0.0041,-0.67972 c -0.0022,-0.37385 -0.117647,-1.30166 -0.256481,-2.0618 l -0.252426,-1.38207 -0.569955,-0.31673 c -0.729175,-0.40522 -3.652319,-1.59184 -3.921368,-1.59184 -0.185023,0 -1.0533,0.79626 -2.383124,2.18546 l -0.490941,0.51287 0.241915,1.44788 c 0.23376,1.39908 0.778266,4.03687 0.850536,4.12032 0.02703,0.0312 2.8436,1.15925 3.000234,1.20159 0.01817,0.005 0.249004,-0.11803 0.51296,-0.27322 z m -1.713698,-3.09334 c -1.141432,-0.64976 -1.130028,-2.75999 0.01831,-3.38922 0.523875,-0.28705 0.920631,-0.26578 1.449941,0.0777 0.590129,0.38298 1.071413,1.46291 0.970854,2.17844 -0.09124,0.64921 -0.424757,1.14233 -0.808125,1.19484 l -0.312106,0.0427 0.294881,-0.50109 c 0.535994,-0.91081 0.292409,-2.16553 -0.493369,-2.54136 -0.764489,-0.36565 -1.52266,0.28492 -1.52266,1.30656 0,0.65319 0.316081,1.1071 1.028511,1.47699 0.266454,0.13834 0.484462,0.27837 0.484462,0.31118 0,0.14398 -0.774357,0.0346 -1.110703,-0.15682 z m 1.336421,-1.09978 c -0.07164,-0.5126 -0.07226,-1.17201 -0.0011,-1.1212 0.162462,0.11594 0.241531,0.72892 0.124043,0.96164 -0.06258,0.12396 -0.117917,0.19576 -0.122975,0.15956 z m -4.145113,2.33636 c -0.03866,-0.16289 -0.207335,-1.11398 -0.374839,-2.11354 l -0.304551,-1.81737 -0.949356,1.09053 c -0.522144,0.59979 -0.947292,1.15106 -0.944771,1.22506 0.0046,0.1354 2.360768,1.90196 2.545015,1.90816 0.05433,0.002 0.06716,-0.12996 0.0285,-0.29284 z m 9.095287,-2.89577 c 0.412018,-0.52486 0.749691,-1.01974 0.750385,-1.09973 0.0012,-0.13985 -2.029276,-1.3051 -2.110583,-1.21121 -0.07222,0.0834 0.441478,3.26523 0.527165,3.26523 0.04615,0 0.421015,-0.42943 0.833033,-0.95429 z m -11.205409,-0.65813 1.276202,-1.48079 -0.14089,-1.71113 c -0.07749,-0.94113 -0.174978,-1.74937 -0.216641,-1.7961 -0.144244,-0.16179 -3.386021,-0.79494 -4.435807,-0.86636 -1.609994,-0.10953 -2.41854,0.35524 -2.604015,1.49686 -0.08766,0.53952 0.166917,1.37665 0.594629,1.95535 l 0.291848,0.39488 -0.06171,-0.46069 c -0.03393,-0.25338 -0.08955,-0.75685 -0.12358,-1.11882 l -0.06187,-0.65813 0.172225,0.78975 c 0.406829,1.86556 0.467763,1.98873 1.398331,2.82659 0.477876,0.43027 0.885677,0.7629 0.906223,0.73917 0.02055,-0.0237 -0.139108,-0.39149 -0.354787,-0.81725 -0.21568,-0.42577 -0.425301,-0.9222 -0.465823,-1.10318 -0.04052,-0.18099 0.08347,-0.003 0.275541,0.39487 0.513269,1.06403 1.137772,1.97087 1.695561,2.46212 0.270809,0.23851 0.511726,0.43365 0.535371,0.43365 0.02364,0 0.617281,-0.66635 1.319192,-1.48079 z m 13.134814,-2.07453 c 0.811064,-1.25003 1.730482,-3.10489 2.003494,-4.04191 0.41674,-1.43033 0.222851,-2.77702 -0.493493,-3.42767 -0.773222,-0.70232 -1.559004,-0.50438 -3.737648,0.94148 -2.247427,1.49151 -2.284666,1.52245 -2.222276,1.84629 0.02901,0.15058 0.248069,1.12288 0.486803,2.16067 l 0.434061,1.88691 1.318139,0.77337 c 0.724978,0.42535 1.39432,0.76023 1.487431,0.74418 0.09311,-0.0161 0.41868,-0.41354 0.723489,-0.88332 z M 30.861,138.72588 c 0,-0.20568 -0.07444,-0.66472 -0.165432,-1.0201 -0.165131,-0.64497 -0.165034,-0.64559 0.05415,-0.33945 0.395646,0.55258 0.587933,1.73351 0.282263,1.73351 -0.111866,0 -0.170987,-0.12931 -0.170987,-0.37396 z m -11.399113,4.19702 c 0.407518,-0.39713 0.765104,-0.74183 0.794637,-0.76601 0.108903,-0.0892 -0.287675,-0.27907 -1.01569,-0.48633 -0.41133,-0.1171 -0.845248,-0.24673 -0.964263,-0.28806 -0.204223,-0.0709 -0.211886,-0.017 -0.136299,0.96001 0.04405,0.56934 0.10886,1.17003 0.144023,1.33486 0.07328,0.3435 0.0079,0.3854 1.177592,-0.75447 z m 6.04153,0.0767 c 0,-0.0994 -0.208309,-0.93305 -0.462908,-1.85264 l -0.462908,-1.67198 -0.306532,0.22515 c -0.577424,0.42411 -2.079527,1.68476 -2.18911,1.83722 -0.07918,0.11016 0.292681,0.32292 1.342499,0.76812 0.798604,0.33867 1.528952,0.67314 1.622995,0.74327 0.24564,0.18317 0.455964,0.16051 0.455964,-0.0491 z m -3.892103,-2.03909 c 0.228455,-0.20735 0.936848,-0.78957 1.574207,-1.29383 l 1.158835,-0.91684 -0.20552,-0.53006 c -0.12449,-0.32107 -0.412841,-0.70198 -0.731367,-0.96611 -0.289217,-0.23983 -0.525848,-0.45772 -0.525848,-0.48419 0,-0.0851 0.440796,0.22118 0.513338,0.35672 0.03854,0.072 0.147699,0.13092 0.242575,0.13092 0.205092,0 -0.753101,-2.17675 -1.207593,-2.74331 -0.154381,-0.19245 -0.291945,-0.43212 -0.305698,-0.5326 -0.04164,-0.30425 -0.858595,-1.18713 -1.355495,-1.46489 -0.626517,-0.35021 -1.556947,-0.34804 -2.051346,0.005 -0.389258,0.27779 -0.737401,1.05713 -0.737401,1.65073 0,0.21572 0.159397,0.50676 0.455965,0.83252 0.688812,0.75662 0.588723,1.59888 -0.23693,1.99378 l -0.360002,0.17219 0.08145,1.59 c 0.04479,0.87449 0.08934,1.59788 0.09898,1.60752 0.04221,0.0422 2.882778,0.93805 3.021895,0.95302 0.08502,0.009 0.3415,-0.15301 0.569955,-0.36036 z m -0.09759,-7.12567 c -0.219433,-0.13872 -0.357949,-0.2547 -0.307815,-0.25774 0.120797,-0.007 0.76378,0.37872 0.76378,0.45855 0,0.0861 -0.0067,0.0832 -0.455965,-0.20081 z m 3.98969,27.5343 c 0,-0.13347 0.574639,-0.45785 0.652275,-0.36821 0.02907,0.0336 -0.105797,0.15577 -0.299709,0.27156 -0.193911,0.11579 -0.352566,0.15928 -0.352566,0.0967 z m 1.139911,-1.02907 c 0,-0.0457 0.09823,-0.26787 0.218285,-0.4936 0.396403,-0.74531 0.693052,-2.00594 0.707333,-3.00587 0.01324,-0.92672 0.01746,-0.94043 0.127398,-0.4143 0.08477,0.40564 0.06942,0.7949 -0.0603,1.5294 -0.179723,1.01764 -0.70092,2.46755 -0.887005,2.46755 -0.05814,0 -0.105713,-0.0374 -0.105713,-0.0832 z m -13.792923,-2.45019 c 0.03135,-0.037 0.552263,-0.13353 1.15759,-0.21457 0.946715,-0.12675 1.649134,-0.32068 2.661112,-0.73471 0.199031,-0.0814 0.193972,-0.0586 -0.03983,0.17978 -0.410664,0.4187 -1.321211,0.682 -2.638964,0.76308 -0.658298,0.0405 -1.171258,0.0434 -1.139911,0.006 z m 4.673635,-1.07334 c 0,-0.0576 0.779438,-0.60531 0.86145,-0.60531 0.159036,0 0.0048,0.23766 -0.280584,0.43231 -0.310728,0.21194 -0.580866,0.2924 -0.580866,0.173 z m 22.521392,-4.1028 c -0.154267,-0.17813 -0.179128,-0.71555 -0.179128,-3.87219 0,-2.01595 0.03114,-3.75905 0.06919,-3.87356 0.06081,-0.18298 0.457823,-0.20838 3.277244,-0.20965 3.820644,-0.002 4.009558,-0.027 4.308961,-0.57742 0.320636,-0.58941 0.255322,-2.05973 -0.110257,-2.48212 -0.252564,-0.29181 -0.299809,-0.29595 -3.811162,-0.33388 -2.623476,-0.0283 -3.578371,-0.0801 -3.642958,-0.19744 -0.129271,-0.23487 -0.109638,-1.64986 0.02698,-1.94463 0.112923,-0.24364 0.276358,-0.2546 3.798012,-0.2546 4.04703,0 4.552979,0.0745 5.116275,0.75375 0.166518,0.20079 0.420926,0.66123 0.565352,1.0232 0.230006,0.57646 0.262444,0.8623 0.261407,2.30345 -9.95e-4,1.4367 -0.03472,1.7313 -0.265693,2.32341 -0.31005,0.79483 -0.593394,1.13223 -1.216563,1.44865 -0.384203,0.19509 -0.907905,0.23873 -3.389681,0.2825 l -2.935272,0.0518 v 2.72486 c 0,1.94383 -0.03921,2.77012 -0.136789,2.8828 -0.208422,0.24067 -1.517077,0.20381 -1.735922,-0.0489 z m 13.066641,0.0489 c -0.197182,-0.22768 -0.197182,-13.40874 0,-13.63643 0.180166,-0.20804 1.598095,-0.20804 1.778261,0 0.09741,0.11248 0.13679,0.92723 0.13679,2.82996 v 2.672 h 2.849779 2.849778 v -2.672 c 0,-1.90273 0.03938,-2.71748 0.136789,-2.82996 0.180166,-0.20804 1.598095,-0.20804 1.778261,0 0.197182,0.22769 0.197182,13.40875 0,13.63643 -0.180166,0.20804 -1.598095,0.20804 -1.778261,0 -0.09784,-0.11296 -0.136789,-0.95648 -0.136789,-2.96158 v -2.80363 H 57.876899 55.02712 v 2.80363 c 0,2.0051 -0.03896,2.84862 -0.13679,2.96158 -0.07876,0.0909 -0.455964,0.15795 -0.88913,0.15795 -0.433167,0 -0.810374,-0.067 -0.88913,-0.15795 z m 17.531836,0.0293 c -0.13762,-0.10032 -0.178518,-0.5376 -0.20958,-2.24085 l -0.03859,-2.1162 -1.980337,-4.07043 c -2.309857,-4.74774 -2.429947,-5.01364 -2.362808,-5.23165 0.05595,-0.18166 1.812207,-0.23659 2.04003,-0.0638 0.07013,0.0532 0.861608,1.65153 1.758848,3.55188 0.89724,1.90034 1.6606,3.45327 1.696356,3.45095 0.03575,-0.002 0.804575,-1.57332 1.708488,-3.49111 1.19969,-2.54533 1.708221,-3.50566 1.883238,-3.55638 0.131868,-0.0382 0.597229,-0.0517 1.034134,-0.0299 0.605906,0.0302 0.802298,0.0876 0.827769,0.24212 0.01837,0.11138 -0.968153,2.24372 -2.192263,4.73852 l -2.225656,4.53602 -8.88e-4,1.99789 c -0.0011,2.38892 -0.0115,2.41257 -1.063448,2.40956 -0.387367,-0.001 -0.781247,-0.0581 -0.875289,-0.12666 z m 9.763787,-0.0673 c -0.258329,-0.29829 -0.265071,-1.80285 -0.0094,-2.09807 0.154734,-0.17867 0.636336,-0.20684 3.536546,-0.20684 h 3.357418 l 0.111169,-0.33763 c 0.183705,-0.55793 0.13869,-2.45419 -0.06628,-2.7921 -0.174608,-0.28785 -0.219808,-0.29258 -2.821281,-0.29543 -3.080038,-0.003 -3.418435,-0.0943 -3.831552,-1.02932 -0.503057,-1.13862 -0.603525,-4.15908 -0.179046,-5.38287 0.235036,-0.67761 0.811714,-1.28842 1.39215,-1.47455 0.254841,-0.0817 1.785747,-0.13837 3.750866,-0.13881 2.715891,-6e-4 3.344521,0.033 3.453437,0.18453 0.08256,0.11487 0.120349,0.55251 0.09946,1.15173 l -0.03371,0.96646 -3.281533,0.0658 c -2.749784,0.0551 -3.299026,0.0978 -3.389491,0.26326 -0.169502,0.30999 -0.139939,2.7046 0.03547,2.87269 0.09236,0.0885 1.143217,0.15559 2.829968,0.18065 l 2.683054,0.0399 0.461965,0.35329 c 0.768495,0.5877 0.987272,1.29144 1.040403,3.34668 0.05051,1.95398 -0.113477,2.90289 -0.622373,3.60124 -0.619038,0.84949 -0.642106,0.85395 -4.67003,0.90277 -3.283703,0.0398 -3.677992,0.022 -3.847201,-0.17335 z m 12.487282,0.038 c -0.197181,-0.22768 -0.197181,-13.40874 0,-13.63643 0.180167,-0.20804 1.598095,-0.20804 1.778262,0 0.197181,0.22769 0.197181,13.40875 0,13.63643 -0.07876,0.0909 -0.455965,0.15795 -0.889132,0.15795 -0.433166,0 -0.810372,-0.067 -0.88913,-0.15795 z m 7.596485,-0.0243 c -1.417534,-0.35204 -2.154957,-1.49384 -2.390083,-3.70069 -0.185294,-1.73913 -0.06644,-6.50103 0.18553,-7.43316 0.300278,-1.11085 0.75221,-1.76893 1.509791,-2.1985 l 0.655882,-0.3719 3.30044,-0.0437 c 3.05368,-0.0405 3.31147,-0.0263 3.44823,0.18969 0.15828,0.24995 0.20218,1.72333 0.0591,1.98311 -0.0609,0.11051 -0.96572,0.16692 -3.16682,0.19744 -2.67817,0.0371 -3.12062,0.0723 -3.37959,0.26841 -0.53095,0.40212 -0.60361,0.93274 -0.59997,4.38122 0.004,3.49042 0.0878,4.01757 0.68252,4.27867 0.16945,0.0744 1.5691,0.13079 3.24611,0.13079 3.4458,0 3.30647,-0.0527 3.30647,1.25045 0,1.30422 0.1376,1.25231 -3.28539,1.23941 -1.83359,-0.007 -3.16812,-0.0709 -3.5722,-0.17124 z m 10.24883,0.0401 c -0.16096,-0.10825 -0.19949,-0.31847 -0.19949,-1.08849 0,-0.56675 0.0556,-1.01847 0.13679,-1.11228 0.10012,-0.11561 1.02592,-0.15795 3.45393,-0.15795 2.42801,0 3.3538,-0.0423 3.45393,-0.15795 0.16561,-0.19122 0.1869,-2.70552 0.0255,-3.00107 -0.0895,-0.16389 -0.59149,-0.20862 -2.95403,-0.26325 -3.25702,-0.0753 -3.25928,-0.0761 -3.77153,-1.25728 -0.24778,-0.57138 -0.28781,-0.86301 -0.32621,-2.37687 -0.0335,-1.32147 -4.7e-4,-1.89759 0.14114,-2.46007 0.22634,-0.89901 0.75874,-1.58834 1.38077,-1.78774 0.28523,-0.0914 1.71674,-0.14601 3.84186,-0.14648 3.8739,-8.4e-4 3.62323,-0.0859 3.62323,1.2303 0,1.23325 0.27697,1.13823 -3.31794,1.13823 -3.89592,0 -3.67757,-0.10829 -3.61767,1.79417 0.0292,0.92491 0.083,1.27501 0.21013,1.36777 0.094,0.0686 1.2995,0.12689 2.6788,0.12958 2.81949,0.006 3.18816,0.0983 3.73233,0.93909 0.47331,0.73131 0.58465,1.35266 0.58632,3.27206 9.9e-4,1.63213 -0.0224,1.83692 -0.29157,2.51281 -0.34807,0.8738 -0.77349,1.26017 -1.58263,1.43736 -0.79508,0.17411 -6.94211,0.16392 -7.20358,-0.0119 z m 21.57282,0.0563 c -1.04484,-0.39747 -1.02592,-0.26924 -1.02592,-6.95573 0,-5.18473 0.0192,-5.78878 0.19447,-6.13149 0.3795,-0.74184 0.58989,-0.77959 4.3254,-0.77614 1.87138,0.002 3.5975,0.0554 3.83582,0.11929 0.68675,0.18407 1.18731,0.65955 1.4647,1.39127 0.20717,0.54646 0.25098,0.91711 0.25822,2.1845 0.008,1.45207 -0.008,1.56422 -0.33789,2.30345 l -0.34661,0.77708 0.26036,0.4452 c 0.38651,0.6609 0.48939,1.24632 0.4901,2.78865 9.9e-4,2.42788 -0.4784,3.49103 -1.71239,3.79661 -0.57004,0.14117 -7.05395,0.19134 -7.40626,0.0573 z m 6.88832,-2.6219 c 0.25285,-0.29197 0.25411,-2.37511 0.002,-2.79126 -0.16997,-0.28021 -0.24958,-0.29254 -1.88834,-0.29254 -0.96138,0 -1.80749,-0.0597 -1.9314,-0.13626 -0.18761,-0.11594 -0.22048,-0.28205 -0.22048,-1.11419 0,-0.83214 0.0329,-0.99824 0.22048,-1.11418 0.12391,-0.0766 0.97002,-0.13626 1.9314,-0.13626 2.07882,0 2.0658,0.0104 2.0658,-1.64945 0,-1.67181 0.19303,-1.57538 -3.15396,-1.57538 h -2.83058 l -0.03,4.50818 -0.03,4.50818 h 2.84314 c 2.43267,0 2.86899,-0.0299 3.02226,-0.20684 z m 8.19677,2.56863 c -0.38648,-0.0581 -0.8492,-0.19322 -1.02829,-0.30015 -0.8673,-0.51789 -1.45274,-1.68955 -1.6294,-3.261 -0.17262,-1.53543 -0.14917,-9.7551 0.0286,-10.03586 0.11975,-0.18909 0.29344,-0.22212 0.99742,-0.18969 l 0.85243,0.0393 0.066,5.0676 c 0.0474,3.64224 0.10706,5.18903 0.21185,5.49937 0.25185,0.74597 0.5247,0.81866 3.07281,0.81866 2.19946,0 2.28952,-0.0104 2.57643,-0.29616 0.16433,-0.16369 0.3444,-0.53165 0.40261,-0.82266 0.0579,-0.28957 0.10653,-2.6618 0.10802,-5.27161 0.002,-3.51153 0.0383,-4.78617 0.13951,-4.90306 0.20114,-0.23226 1.62364,-0.20737 1.79527,0.0314 0.10197,0.14187 0.12612,1.50377 0.0963,5.42956 -0.0388,5.10535 -0.0465,5.25971 -0.302,5.99909 -0.49506,1.43314 -1.14162,1.99054 -2.55486,2.20253 -0.97762,0.14664 -3.83824,0.1423 -4.83275,-0.007 z m 13.4127,-0.0396 c -0.87194,-0.22873 -1.3162,-0.53098 -1.71511,-1.16684 -0.66229,-1.05571 -0.7357,-1.61758 -0.7357,-5.63067 0,-3.05541 0.0306,-3.73388 0.19649,-4.35205 0.29307,-1.09223 0.7859,-1.79432 1.54978,-2.2078 l 0.64754,-0.35051 3.76957,-0.0422 c 3.21785,-0.036 3.79004,-0.0137 3.9094,0.15235 0.0902,0.12548 0.12787,0.53769 0.10613,1.16102 l -0.0337,0.96646 -3.59603,0.0658 c -3.21337,0.0588 -3.62936,0.0911 -3.90929,0.30305 -0.54869,0.41552 -0.58602,0.68918 -0.58707,4.30386 -8.7e-4,2.95722 0.0229,3.40687 0.19969,3.78034 0.11036,0.23313 0.29935,0.48486 0.41997,0.5594 0.13179,0.0815 1.24409,0.13553 2.78758,0.13553 2.42253,0 2.57499,-0.0144 2.68629,-0.2546 0.065,-0.14002 0.11801,-0.91004 0.11801,-1.71113 v -1.45654 h -1.83136 c -1.04441,0 -1.9261,-0.0585 -2.05184,-0.13625 -0.18693,-0.11552 -0.22048,-0.28181 -0.22048,-1.0925 0,-0.56824 0.0555,-1.02032 0.13678,-1.11419 0.0987,-0.11397 0.88986,-0.15795 2.84164,-0.15795 2.36842,0 2.72839,0.0272 2.89411,0.21855 0.16814,0.19415 0.18495,0.5725 0.15064,3.38936 -0.0348,2.8576 -0.0612,3.22199 -0.26662,3.68883 -0.4626,1.05109 -0.48775,1.05818 -3.85528,1.08732 -2.05171,0.0177 -3.1801,-0.0256 -3.61114,-0.13866 z m 13.42051,-0.006 c -1.29695,-0.32166 -1.96952,-1.20873 -2.30473,-3.03972 -0.2222,-1.21374 -0.25308,-10.3187 -0.0358,-10.56955 0.15029,-0.17354 1.54443,-0.2168 1.76509,-0.0548 0.0992,0.0728 0.14458,1.44418 0.17099,5.16429 0.0322,4.53807 0.0569,5.10926 0.23662,5.48904 0.11037,0.23313 0.29936,0.48486 0.41998,0.5594 0.1332,0.0823 1.30981,0.13553 2.99678,0.13553 2.00827,0 2.81537,0.0438 2.91427,0.15795 0.0807,0.0932 0.13679,0.54113 0.13679,1.0925 0,0.55136 -0.0561,0.9993 -0.13679,1.09249 -0.18999,0.21938 -5.25921,0.19704 -6.16316,-0.0272 z m 11.77079,-0.0695 c -0.46352,-0.16281 -1.00095,-0.51681 -1.26417,-0.83271 -0.6859,-0.82317 -1.09401,-2.95309 -0.98578,-5.1448 0.054,-1.09327 0.0807,-1.19482 0.41529,-1.58139 l 0.35761,-0.4131 3.99777,-0.0393 c 2.99143,-0.0294 4.03941,5.7e-4 4.16312,0.11912 0.12382,0.11867 0.15704,0.40934 0.13234,1.15813 l -0.033,0.99969 -3.43375,0.0348 -3.43377,0.0348 -0.0688,0.62332 c -0.0929,0.84167 0.079,1.61366 0.43921,1.97248 0.29209,0.29096 0.35004,0.29616 3.30357,0.29616 2.58098,0 3.03161,0.0293 3.1854,0.20684 0.1324,0.15289 0.17913,0.47624 0.17913,1.23968 0,0.56806 -0.0311,1.12653 -0.0692,1.24104 -0.061,0.18352 -0.45627,0.20687 -3.33424,0.19689 -1.79578,-0.006 -3.39363,-0.0565 -3.55077,-0.11167 z m -155.051189,-8.4331 c 0.232622,-0.36153 0.439005,-0.60189 0.45863,-0.53415 0.05293,0.18273 -0.297413,0.7495 -0.609039,0.98527 -0.222628,0.16844 -0.195083,0.0858 0.150409,-0.45112 z m 0.821918,-1.36171 c 0,-0.0974 0.102134,-0.28377 0.226964,-0.41421 0.352197,-0.36805 0.757392,-1.24334 0.974168,-2.10438 0.152869,-0.6072 0.182763,-1.06634 0.132727,-2.03853 -0.05151,-1.00081 -0.0373,-1.20153 0.07023,-0.99156 0.0821,0.16034 0.132089,0.80354 0.127865,1.64532 -0.0079,1.57216 -0.218422,2.37352 -0.907739,3.45518 -0.396504,0.62218 -0.624206,0.78567 -0.624206,0.44818 z M 183.8599,141.17951 c -0.0788,-0.0909 -0.13678,-0.5265 -0.13678,-1.02668 0,-0.50018 0.058,-0.93574 0.13678,-1.02668 0.10163,-0.11735 1.25808,-0.15795 4.49865,-0.15795 4.96916,0 4.59785,-0.0957 4.59785,1.18463 0,1.2803 0.37131,1.18463 -4.59785,1.18463 -3.24057,0 -4.39702,-0.0406 -4.49865,-0.15795 z m -159.702795,-6.5762 c -0.357845,-0.87008 -1.109871,-1.91196 -1.724572,-2.38928 -0.152955,-0.11877 -0.243652,-0.25573 -0.201549,-0.30434 0.14457,-0.16694 1.03377,0.67524 1.524803,1.44416 0.400289,0.62682 0.922356,2.00905 0.806816,2.13613 -0.01546,0.017 -0.197936,-0.382 -0.405498,-0.88667 z m -2.814364,-3.42074 -0.455965,-0.24806 0.395406,0.0705 c 0.217475,0.0388 0.444886,0.12766 0.505361,0.19749 0.205645,0.23746 0.01241,0.22879 -0.444802,-0.02 z"
         id="path7" /></g></g></svg>
