<?xml version="1.0" encoding="UTF-8" standalone="no"?>
<!-- Created with Inkscape (http://www.inkscape.org/) -->

<svg
   width="210mm"
   height="150mm"
   viewBox="0 0 210 150"
   version="1.1"
   id="svg1"
   xml:space="preserve"
   inkscape:version="1.3.2 (091e20e, 2023-11-25, custom)"
   sodipodi:docname="menu.svg"
   xmlns:inkscape="http://www.inkscape.org/namespaces/inkscape"
   xmlns:sodipodi="http://sodipodi.sourceforge.net/DTD/sodipodi-0.dtd"
   xmlns="http://www.w3.org/2000/svg"
   xmlns:svg="http://www.w3.org/2000/svg"><sodipodi:namedview
     id="namedview1"
     pagecolor="#000000"
     bordercolor="#000000"
     borderopacity="0.25"
     inkscape:showpageshadow="2"
     inkscape:pageopacity="0.0"
     inkscape:pagecheckerboard="0"
     inkscape:deskcolor="#d1d1d1"
     inkscape:document-units="mm"
     inkscape:zoom="0.93103385"
     inkscape:cx="327.59282"
     inkscape:cy="359.27802"
     inkscape:window-width="1920"
     inkscape:window-height="974"
     inkscape:window-x="-11"
     inkscape:window-y="-11"
     inkscape:window-maximized="1"
     inkscape:current-layer="g1" /><defs
     id="defs1" /><g
     inkscape:label="Layer 1"
     inkscape:groupmode="layer"
     id="layer1"><g
       id="g1"
       transform="matrix(2.603609,0,0,2.5588249,43.429982,74.535497)"><path
         fill="#581c87"
         opacity="1"
         stroke="none"
         d="m 8.0947093,-10.017198 c 10.2493437,-0.195665 20.4986867,-0.195665 31.0417447,-0.195665 0.293712,0.2608878 0.293712,0.5217748 0.293712,0.9783278 -10.249345,0.195666 -20.498688,0.195666 -31.0417451,0.195666 -0.2937116,-0.260888 -0.2937116,-0.521775 -0.2937116,-0.9783288 z"
         id="path5"
         style="fill:#f5e7ff;fill-opacity:1;stroke-width:0.606528" /><path
         fill="#581c87"
         opacity="1"
         stroke="none"
         d="m 39.430166,-0.42958225 c -10.249345,0.195664 -20.498688,0.195664 -31.0417451,0.195664 -0.2937116,-0.260887 -0.2937116,-0.521775 -0.2937116,-0.97832795 10.2493437,-0.195665 20.4986867,-0.195665 31.0417447,-0.195665 0.293712,0.260888 0.293712,0.52177495 0.293712,0.97832895 z"
         id="path6"
         style="fill:#f5e7ff;fill-opacity:1;stroke-width:0.606528" /><path
         fill="#581c87"
         opacity="1"
         stroke="none"
         d="M 39.430166,8.3753687 C 29.180821,8.5710337 18.931478,8.5710337 8.3884209,8.5710337 8.0947093,8.3101447 8.0947093,8.0492587 8.0947093,7.5927047 18.344053,7.3970407 28.593396,7.3970407 39.136454,7.3970407 c 0.293712,0.260889 0.293712,0.521775 0.293712,0.978328 z"
         id="path7"
         style="fill:#f5e7ff;fill-opacity:1;stroke-width:0.606528" /></g></g></svg>
